<?xml version="1.0" standalone="no"?>
<!DOCTYPE svg PUBLIC "-//W3C//DTD SVG 20010904//EN"
 "http://www.w3.org/TR/2001/REC-SVG-20010904/DTD/svg10.dtd">
<svg version="1.0" xmlns="http://www.w3.org/2000/svg"
 width="621.000000pt" height="519.000000pt" viewBox="0 0 621.000000 519.000000"
 preserveAspectRatio="xMidYMid meet">

<g transform="translate(0.000000,519.000000) scale(0.100000,-0.100000)"
fill="#000000" stroke="none">
<path d="M350 5097 c-14 -7 -28 -16 -32 -21 -3 -5 -17 -10 -29 -11 -13 -1 -25
-7 -27 -13 -2 -7 -9 -12 -15 -12 -21 -1 -68 -57 -65 -77 2 -12 -2 -17 -13 -15
-14 2 -21 -7 -33 -48 -1 -3 -5 -11 -10 -19 -6 -10 -5 -16 2 -19 17 -5 15 -22
-3 -22 -13 0 -15 -253 -15 -2214 0 -1672 3 -2228 12 -2268 6 -29 26 -76 43
-103 30 -47 95 -109 110 -105 4 1 12 -5 18 -13 11 -14 46 -26 92 -33 11 -1
992 -3 2179 -4 1476 0 2163 3 2170 10 7 7 6 14 -2 22 -14 14 -16 28 -3 28 5 0
11 -9 14 -21 4 -17 10 -19 29 -14 13 4 25 12 26 16 2 5 8 9 14 9 6 0 21 11 34
25 13 14 28 25 34 25 5 0 10 6 10 14 0 17 -39 48 -52 40 -4 -3 -5 2 -2 10 5
13 10 13 27 4 12 -6 25 -16 29 -21 4 -7 12 -6 22 2 13 11 14 16 4 29 -11 13
-10 15 5 9 9 -3 17 -2 17 3 0 5 -10 12 -23 16 -12 3 -34 15 -49 26 -35 25 -36
15 -2 -17 21 -20 23 -25 10 -25 -9 0 -28 7 -41 16 -14 9 -25 12 -25 6 0 -6 5
-14 11 -18 6 -3 8 -16 5 -29 -4 -14 0 -28 9 -35 8 -7 15 -16 15 -21 0 -5 -12
1 -26 14 -28 24 -64 41 -64 29 0 -5 11 -23 25 -42 34 -46 32 -62 -3 -21 -16
19 -34 32 -42 29 -16 -5 -50 31 -50 52 0 9 5 9 17 -1 15 -12 16 -12 10 5 -6
15 -4 17 13 13 11 -3 18 0 17 7 -1 6 6 10 16 10 10 -1 17 5 17 17 0 10 5 21
11 24 6 4 8 14 4 22 -4 13 -3 14 10 3 12 -10 15 -10 15 4 0 9 -4 16 -10 16 -5
0 -10 4 -10 9 0 5 10 7 23 3 19 -5 20 -3 10 10 -9 10 -9 18 -2 25 7 7 12 64
12 141 1 72 5 128 10 125 11 -7 8 12 -5 25 -8 8 -8 15 0 25 9 10 7 19 -5 37
-9 13 -11 20 -5 16 15 -9 16 22 3 58 -7 17 -7 26 2 29 9 3 9 8 -2 20 -10 13
-10 17 -1 17 11 0 11 12 -1 60 -2 9 2 14 10 12 11 -2 10 3 -3 23 -9 14 -12 25
-6 25 6 0 8 5 5 11 -10 14 -12 78 -3 73 3 -2 9 0 12 5 4 5 2 12 -3 16 -5 3 -8
15 -6 26 2 11 0 32 -6 47 l-10 26 22 -19 c22 -20 22 -20 10 2 -6 12 -16 25
-21 28 -6 4 -8 11 -4 16 3 5 10 7 15 4 15 -10 10 5 -7 22 -11 11 -12 18 -4 23
7 4 8 18 4 35 -5 20 -4 26 5 21 6 -4 11 -3 11 3 0 5 -4 13 -10 16 -12 7 -14
26 -2 24 19 -3 24 2 13 15 -14 17 -21 76 -9 76 5 0 6 5 3 11 -4 6 -7 26 -7 45
0 19 -4 34 -10 34 -5 0 -6 5 -3 10 4 6 10 8 15 5 15 -9 6 49 -9 61 -9 7 -11
16 -5 25 5 8 7 22 6 31 -2 13 2 16 15 12 13 -4 14 -3 5 3 -7 5 -12 23 -11 39
1 16 -2 38 -6 48 -7 15 -5 17 6 11 10 -7 9 -2 -3 17 -19 29 -14 70 8 61 17 -6
19 18 2 35 -15 15 -17 64 -3 75 6 4 5 10 -3 16 -15 9 -25 64 -11 55 5 -3 9 0
9 6 0 6 5 8 10 5 15 -9 12 4 -5 21 -20 21 -19 35 2 27 17 -7 17 -6 0 20 -9 15
-14 27 -9 27 12 0 7 61 -7 88 -9 18 -9 21 3 16 11 -4 13 0 9 15 -3 12 -10 21
-17 22 -6 0 -3 4 8 8 17 7 17 8 2 23 -9 9 -12 19 -7 22 5 4 11 0 14 -6 2 -7 7
-10 11 -7 4 4 -3 16 -15 28 -21 20 -22 21 -3 21 15 0 16 2 5 9 -10 6 -12 20
-8 45 4 27 3 35 -6 29 -9 -5 -9 -3 -1 8 6 8 10 31 8 52 -3 33 -1 37 11 27 9
-7 15 -8 15 -2 0 5 -6 15 -14 21 -8 6 -16 21 -19 32 -4 16 -2 19 16 14 20 -6
21 -5 5 8 -10 8 -18 17 -18 21 0 3 8 6 18 6 13 0 14 2 4 9 -8 5 -13 22 -11 42
4 60 0 91 -12 84 -12 -8 12 37 25 47 5 3 1 14 -8 24 -13 13 -15 19 -5 25 10 6
10 11 -1 24 -8 10 -10 19 -4 23 12 9 12 85 -1 95 -6 4 -5 10 4 16 13 8 13 12
0 27 -10 12 -11 18 -3 21 8 3 9 15 4 40 -7 30 -6 36 11 40 10 3 16 10 13 15
-3 5 -11 7 -18 5 -6 -3 -12 4 -12 14 0 11 7 19 14 19 12 0 11 5 -2 25 -9 14
-12 25 -6 25 6 0 8 10 4 24 -3 13 -1 27 5 31 8 4 7 13 -4 28 -19 27 -19 37 1
37 13 0 13 2 -2 17 -16 17 -16 18 -1 21 20 4 22 33 5 50 -16 16 -17 62 -1 62
7 0 13 5 13 10 0 6 -4 10 -9 10 -5 0 -9 23 -7 51 1 28 -2 53 -6 55 -14 9 -8
24 7 18 17 -7 21 11 5 21 -6 4 -10 14 -8 23 1 10 -1 23 -5 30 -5 6 -4 12 2 12
6 0 6 11 0 32 -5 18 -9 34 -9 35 0 1 7 0 15 -3 18 -7 20 10 2 24 -11 9 -15 88
-5 98 2 2 23 6 46 10 28 4 42 3 42 -5 0 -6 -6 -11 -12 -11 -7 -1 -2 -7 12 -15
l25 -14 -30 -1 c-28 -1 -29 -2 -10 -13 25 -15 34 -73 11 -64 -25 10 -19 -9 7
-21 l22 -11 -25 -1 c-22 0 -23 -2 -7 -11 23 -14 22 -29 -3 -24 -29 6 -25 -4 8
-17 22 -9 24 -12 9 -15 -18 -5 -18 -6 -1 -24 16 -18 16 -19 -6 -19 l-22 0 23
-20 c21 -17 22 -19 5 -20 -15 0 -16 -3 -7 -14 10 -11 9 -16 -5 -24 -15 -8 -15
-9 1 -15 11 -5 14 -13 10 -26 -4 -14 0 -21 12 -24 17 -4 17 -5 1 -6 -23 -1
-23 -17 0 -30 14 -9 12 -11 -13 -12 -17 -1 -22 -3 -13 -6 14 -3 17 -12 13 -39
-2 -19 -7 -38 -9 -43 -3 -5 4 -12 17 -16 l22 -8 -22 -4 c-28 -5 -29 -12 -5
-29 16 -13 16 -13 0 -14 -20 0 -24 -15 -8 -25 16 -10 12 -25 -7 -25 -14 -1
-12 -4 7 -15 24 -14 24 -14 3 -15 -12 0 -25 -5 -29 -12 -4 -6 -3 -8 3 -5 6 4
19 0 29 -8 17 -13 18 -14 2 -15 -23 0 -23 -9 0 -26 16 -12 15 -13 -8 -14 -24
-2 -24 -2 5 -15 l30 -13 -30 -5 c-30 -4 -30 -4 -6 -12 23 -8 24 -9 5 -16 -18
-6 -17 -8 6 -17 24 -10 23 -11 -15 -13 -31 -2 -34 -3 -12 -6 28 -5 36 -18 15
-26 -9 -3 -7 -10 7 -21 19 -15 19 -15 -10 -17 l-30 -1 28 -11 c15 -6 27 -15
27 -20 0 -5 -7 -7 -15 -3 -21 8 -19 -4 6 -30 l20 -21 -28 4 -28 5 25 -21 c23
-19 18 -27 -12 -22 -17 2 -7 -18 12 -24 24 -8 27 -25 4 -25 -20 0 -10 -16 15
-23 20 -5 20 3 21 561 0 312 4 570 8 574 4 4 84 10 177 13 94 3 224 10 290 15
66 5 165 10 221 10 55 0 103 3 106 6 3 3 70 7 149 10 172 6 191 8 207 18 27
17 -3 24 -94 22 -76 -1 -98 2 -105 14 -7 13 -8 13 -9 0 0 -18 -41 -22 -52 -6
-4 6 -12 5 -22 -3 -12 -11 -16 -11 -16 -1 0 10 -3 10 -15 0 -8 -7 -15 -9 -15
-5 0 4 -7 2 -16 -5 -8 -8 -14 -9 -12 -3 3 11 -1 13 -29 13 -15 0 -16 -2 -3
-10 9 -6 10 -10 3 -10 -6 0 -14 4 -17 9 -7 10 -86 9 -103 -2 -8 -5 -13 -3 -13
4 0 8 -4 8 -15 -1 -8 -7 -15 -9 -15 -4 0 5 -24 9 -54 9 -30 0 -53 -2 -51 -5 2
-3 -22 -5 -53 -4 -32 0 -63 -4 -70 -9 -20 -16 -28 2 -9 21 16 15 19 15 27 2 8
-12 10 -11 10 7 0 23 -18 23 -47 1 -7 -5 -13 -4 -17 4 -3 7 -4 4 -1 -7 2 -11
1 -26 -4 -34 -12 -19 -30 14 -24 43 4 21 4 21 -12 1 -9 -12 -11 -21 -5 -23 5
-2 8 -8 4 -13 -3 -5 -12 -2 -20 6 -9 8 -12 19 -9 25 3 5 1 10 -4 10 -6 0 -11
-9 -11 -20 0 -12 -7 -20 -16 -20 -14 0 -14 3 -4 15 22 27 3 27 -23 1 -32 -32
-47 -33 -48 -3 l0 22 -11 -22 c-7 -15 -20 -23 -36 -23 -21 0 -23 3 -17 28 6
26 6 26 -9 7 -13 -16 -15 -17 -10 -2 3 9 1 17 -5 17 -6 0 -14 -12 -17 -26 -4
-17 -9 -22 -14 -14 -4 7 -13 9 -20 5 -9 -5 -10 -2 -5 14 4 12 2 21 -4 21 -6 0
-11 -11 -11 -25 0 -14 -4 -25 -10 -25 -10 0 -14 14 -11 38 1 6 -3 12 -10 12
-7 0 -9 -9 -4 -27 5 -22 4 -25 -8 -14 -12 9 -16 9 -20 -1 -4 -11 -6 -10 -6 0
-1 7 -5 11 -10 8 -4 -3 -6 5 -4 18 3 13 0 27 -6 30 -7 5 -11 -5 -11 -28 0 -20
-4 -36 -10 -36 -5 0 -10 18 -10 40 0 23 -5 40 -11 40 -8 0 -10 -15 -6 -47 6
-44 5 -46 -8 -29 -8 11 -15 27 -15 35 0 9 -8 1 -16 -16 -9 -18 -20 -33 -25
-33 -12 0 -11 27 1 35 6 3 10 11 10 16 0 13 -43 0 -49 -14 -6 -16 -40 -47 -52
-47 -6 0 -9 7 -6 15 4 8 2 17 -3 20 -5 3 -7 12 -3 20 3 8 1 15 -5 15 -15 0
-22 -26 -9 -39 8 -8 8 -14 0 -22 -8 -8 -13 -8 -17 0 -5 7 -13 7 -27 -2 -16
-10 -21 -9 -28 2 -6 8 -14 10 -22 5 -8 -5 -23 -10 -35 -11 -18 -3 -20 1 -16
27 2 17 8 33 13 36 15 9 10 24 -6 18 -9 -4 -15 -19 -15 -39 0 -19 -4 -37 -10
-40 -6 -3 -10 3 -10 14 0 30 -19 35 -26 6 -3 -14 -13 -25 -21 -25 -13 0 -13 3
-3 15 11 13 10 18 -5 29 -11 8 -16 20 -12 30 9 24 -1 20 -28 -11 -13 -16 -25
-37 -25 -48 -1 -18 -1 -19 -11 -3 -7 12 -6 24 1 38 6 12 9 26 7 33 -2 7 -12
-3 -21 -22 -14 -26 -15 -35 -6 -41 17 -11 5 -27 -23 -32 -29 -6 -34 28 -8 57
10 11 21 28 24 38 9 26 -12 21 -22 -6 -12 -31 -72 -98 -83 -91 -8 5 33 68 60
91 7 6 12 20 9 30 -4 17 -4 17 -12 0 -13 -31 -74 -85 -79 -71 -3 7 2 18 10 25
9 7 22 25 30 41 12 23 12 27 0 22 -7 -3 -18 -16 -24 -30 -16 -34 -29 -30 -24
7 3 22 1 30 -7 25 -6 -4 -11 -22 -11 -41 0 -19 -4 -37 -10 -40 -5 -3 -10 -19
-10 -35 0 -16 -4 -32 -10 -35 -6 -4 -7 6 -4 27 l6 33 -17 -25 c-34 -48 -72
-67 -60 -30 4 11 2 20 -4 20 -6 0 -11 9 -11 21 0 11 -4 18 -10 14 -5 -3 -3 15
5 40 10 33 10 45 2 42 -7 -2 -18 -33 -26 -68 -13 -62 -26 -83 -43 -73 -5 3 1
18 12 34 20 28 28 76 11 65 -5 -3 -12 5 -14 17 -2 13 -5 2 -6 -24 0 -26 -5
-50 -11 -53 -5 -3 -10 -17 -10 -31 0 -23 -2 -24 -15 -10 -19 19 -19 21 5 54
16 21 19 34 12 52 -9 23 -9 22 -16 -13 -4 -21 -11 -35 -16 -32 -6 3 -5 16 0
31 17 42 11 51 -11 17 -12 -19 -17 -38 -13 -45 10 -16 6 -60 -7 -73 -7 -6 -8
5 -3 33 5 35 4 42 -10 42 -11 0 -16 -9 -16 -27 -1 -18 -10 -35 -25 -46 -32
-23 -35 0 -5 28 11 10 20 22 20 27 0 5 13 29 30 53 40 59 38 69 -5 21 -36 -41
-48 -35 -19 9 9 14 12 25 7 25 -15 0 -33 -23 -33 -42 0 -10 -5 -18 -10 -18 -6
0 -15 -11 -22 -25 -6 -13 -15 -22 -19 -19 -12 7 1 36 28 61 13 12 23 30 23 40
0 14 -8 10 -31 -17 -27 -32 -30 -33 -23 -10 3 14 10 30 15 36 6 7 1 10 -14 9
-22 -2 -76 -67 -77 -93 0 -7 -4 -11 -9 -7 -12 7 -52 -48 -54 -75 -1 -11 -6
-19 -12 -17 -15 6 -8 29 28 91 18 31 37 53 45 51 8 -3 12 5 11 23 0 15 -3 21
-6 15 -7 -18 -23 -16 -23 2 0 24 -29 17 -42 -10 -18 -40 -33 -31 -29 18 3 22
-15 22 -23 1 -4 -9 -9 -14 -13 -11 -11 12 -73 -94 -73 -124 0 -16 -4 -29 -8
-29 -5 0 -14 -10 -20 -22 l-11 -23 0 22 c-1 12 3 24 8 27 12 8 20 56 9 56 -5
0 -13 -12 -18 -27 -18 -49 -33 -72 -42 -67 -13 8 31 81 80 131 23 24 42 51 42
61 0 11 -20 -4 -56 -43 -60 -63 -93 -117 -95 -150 -1 -17 -2 -18 -6 -2 -4 15
-7 16 -20 5 -15 -12 -16 -9 -11 27 3 22 3 51 -1 65 -8 30 -2 70 10 70 5 0 7
-19 3 -42 l-6 -43 16 28 c8 15 24 40 36 54 24 31 28 62 5 43 -8 -7 -15 -19
-15 -27 0 -8 -4 -12 -9 -9 -5 3 -7 16 -4 29 6 20 4 20 -26 -8 -50 -46 -51 -48
-73 -85 -14 -23 -23 -30 -26 -21 -2 8 3 18 12 23 9 5 16 18 16 28 0 10 6 23
14 27 7 4 17 18 20 31 10 32 -12 28 -27 -5 -6 -16 -26 -47 -44 -71 -18 -24
-33 -50 -33 -58 0 -8 -5 -14 -11 -14 -7 0 -9 -10 -5 -24 3 -14 2 -28 -4 -31
-6 -3 -10 4 -10 17 l0 23 -20 -25 c-15 -19 -20 -21 -20 -9 0 9 7 23 16 30 9 8
28 32 42 54 14 22 35 50 47 63 13 12 25 33 29 45 4 16 -8 7 -42 -29 -26 -28
-53 -62 -60 -75 -7 -13 -24 -39 -37 -58 l-25 -34 0 32 c0 18 4 30 10 26 5 -3
18 11 29 32 10 21 29 45 40 53 12 8 21 18 21 22 0 4 9 17 20 28 11 11 20 28
20 37 0 19 -77 -59 -107 -109 -10 -16 -22 -28 -28 -28 -6 0 -22 -21 -35 -46
-30 -54 -60 -76 -60 -44 0 12 4 18 10 15 5 -3 12 6 16 20 3 13 10 23 15 20 4
-3 13 4 20 17 14 27 18 31 73 93 25 28 46 54 46 58 0 10 -37 -10 -46 -24 -4
-8 -9 -7 -15 2 -6 10 -9 5 -9 -16 -1 -26 -2 -28 -11 -12 -6 10 -8 25 -5 33 11
27 -15 14 -32 -17 -9 -18 -29 -46 -43 -63 -14 -17 -32 -42 -38 -54 -7 -13 -15
-21 -18 -19 -10 10 9 47 48 97 46 59 55 97 11 53 -15 -15 -38 -45 -51 -65 -12
-21 -29 -38 -36 -38 -7 0 -16 -13 -20 -30 -4 -16 -11 -33 -17 -36 -11 -7 -8
26 7 71 6 18 4 17 -14 -4 -12 -13 -21 -29 -21 -37 0 -8 -4 -14 -10 -14 -5 0
-10 -6 -10 -12 0 -16 -48 -39 -55 -27 -6 9 29 49 43 49 4 0 13 14 21 30 7 17
33 51 57 77 24 25 44 53 44 61 0 21 -78 -55 -111 -108 -13 -22 -28 -40 -32
-40 -12 0 2 39 21 60 38 41 62 72 62 81 0 26 -36 -7 -84 -78 -16 -24 -32 -43
-37 -43 -13 0 -48 -64 -46 -84 1 -10 -4 -21 -12 -24 -10 -3 -11 2 -6 18 7 21
13 46 14 62 1 4 21 28 46 55 25 26 45 50 45 54 0 3 9 16 20 29 11 13 20 27 20
31 0 11 -109 -97 -137 -136 -13 -16 -23 -25 -23 -18 0 16 40 83 50 83 13 0 21
31 12 47 -7 12 -15 6 -35 -28 -14 -24 -41 -60 -60 -79 -18 -19 -37 -49 -42
-65 -8 -27 -9 -28 -12 -8 -4 22 49 113 66 113 8 0 51 81 51 96 0 4 -10 -6 -22
-22 -13 -16 -27 -34 -33 -40 -16 -19 -51 -65 -101 -134 -30 -40 -49 -59 -52
-51 -3 8 2 19 10 25 8 6 32 38 53 71 21 33 43 64 50 70 21 17 48 65 37 65 -12
0 -112 -123 -112 -138 0 -5 -7 -12 -15 -16 -8 -3 -15 -12 -15 -21 0 -8 -7 -15
-16 -15 -12 0 -15 -6 -10 -26 6 -22 4 -25 -10 -20 -11 4 -15 2 -11 -7 3 -8 -1
-14 -9 -14 -17 0 -17 2 -2 44 7 18 18 33 25 33 7 0 13 4 13 8 0 5 8 18 18 30
24 28 54 69 75 103 14 22 16 29 5 29 -12 0 -23 -14 -78 -95 -52 -76 -117 -148
-123 -138 -3 5 12 29 34 53 22 25 47 57 55 73 8 15 19 27 24 27 6 0 10 7 10
15 0 8 3 15 8 15 13 1 43 50 36 61 -7 13 -25 -5 -74 -75 -19 -28 -43 -58 -52
-67 -9 -10 -23 -31 -32 -46 -13 -26 -59 -73 -71 -73 -10 0 -5 36 7 48 9 9 8
12 -4 12 -8 0 -21 -14 -28 -31 -11 -25 -15 -28 -22 -15 -5 9 -6 21 -3 26 3 6
1 10 -5 10 -6 0 -13 -7 -16 -15 -12 -32 -26 -1 -19 44 6 43 5 44 -8 21 -38
-71 -57 -88 -57 -52 1 22 26 68 37 65 9 -3 73 110 73 129 0 6 -19 -15 -42 -48
-23 -32 -46 -61 -50 -62 -13 -6 -38 -71 -39 -101 -1 -26 -1 -26 -10 4 -7 26
-3 39 28 90 20 33 43 65 49 70 7 6 16 24 19 40 5 27 4 28 -7 11 -7 -11 -21
-28 -30 -38 -10 -10 -18 -21 -18 -25 -1 -5 -12 -21 -26 -38 l-26 -30 7 30 c14
60 13 104 -1 98 -8 -3 -14 -10 -14 -17 0 -6 -14 -27 -31 -46 -17 -19 -34 -44
-39 -55 -8 -18 -9 -18 -9 -2 -1 10 4 27 10 39 19 36 0 32 -36 -7 -19 -22 -37
-36 -40 -33 -4 3 12 26 34 50 26 27 41 52 41 68 -1 23 -2 23 -12 6 -6 -10 -32
-41 -59 -69 -27 -28 -49 -54 -49 -58 0 -4 -10 -24 -22 -44 l-21 -37 -13 23
c-7 13 -13 30 -14 36 0 15 52 92 63 93 13 0 7 -28 -8 -34 -8 -3 -15 -13 -15
-21 0 -9 -4 -13 -10 -10 -6 4 -10 -7 -10 -24 0 -17 2 -31 4 -31 3 0 15 18 27
40 13 22 26 40 31 40 4 0 8 7 8 15 0 8 8 19 18 24 20 11 57 71 43 71 -12 0
-38 -25 -52 -52 -20 -37 -21 -10 -1 31 11 23 16 41 11 41 -5 0 -9 -4 -9 -10 0
-5 -21 -31 -46 -57 -25 -27 -51 -59 -57 -73 -9 -22 -11 -23 -15 -6 -2 11 3 25
12 31 9 7 16 17 16 23 0 5 7 12 15 16 8 3 15 10 15 16 0 6 7 18 15 26 23 23
18 41 -17 58 -41 21 -101 20 -288 -5 -85 -11 -161 -21 -168 -22 -13 0 -37 -46
-29 -54 6 -6 59 24 68 39 7 10 9 9 9 -4 0 -19 28 -14 43 6 5 7 12 4 22 -8 15
-19 15 -19 16 5 0 13 3 18 6 12 2 -7 15 -13 28 -13 13 0 26 6 28 13 4 9 8 8
16 -3 8 -10 13 -12 19 -4 9 14 62 27 62 15 0 -5 17 -7 38 -4 20 3 47 6 60 6
12 1 22 8 22 15 0 17 17 15 23 -2 4 -9 14 -12 28 -9 19 5 20 4 10 -13 -6 -10
-36 -50 -66 -89 -30 -38 -55 -79 -56 -90 -1 -16 -2 -16 -9 5 -4 15 -3 29 4 35
15 14 66 89 66 98 0 18 -19 3 -57 -46 -31 -41 -41 -62 -41 -91 0 -28 4 -36 14
-32 16 6 18 -3 6 -22 -5 -7 -16 -10 -25 -6 -14 5 -16 15 -11 63 4 31 10 60 15
66 12 13 11 45 -1 45 -5 0 -10 -7 -10 -15 0 -8 -4 -15 -9 -15 -5 0 -7 9 -4 20
3 11 0 20 -6 20 -6 0 -10 -3 -10 -7 1 -5 1 -16 0 -25 -2 -28 -21 -21 -21 8 0
14 -4 23 -10 19 -5 -3 -10 -18 -10 -33 0 -28 -15 -60 -24 -51 -3 3 -1 22 5 43
11 38 7 76 -5 44 -19 -55 -18 -54 -26 -28 l-7 25 -7 -30 c-13 -51 -14 -51 -16
0 -1 58 -14 39 -22 -35 -3 -25 -4 -39 -1 -32 3 6 9 12 14 12 6 0 9 -6 8 -12
-3 -26 1 -39 11 -33 6 3 10 15 10 26 0 10 5 19 10 19 6 0 10 -11 10 -25 0 -36
15 -31 35 11 20 42 31 40 14 -2 -6 -16 -11 -45 -10 -64 0 -26 -2 -31 -9 -20
-8 12 -12 13 -19 2 -6 -11 -10 -10 -15 5 -7 17 -8 17 -21 -1 -14 -18 -15 -18
-25 8 -5 15 -7 33 -3 39 4 6 0 8 -9 4 -12 -4 -17 2 -21 26 -2 18 -1 37 4 42 4
6 4 17 -1 25 -8 13 -10 12 -10 -2 0 -10 -4 -18 -10 -18 -5 0 -10 9 -10 21 0
31 -17 14 -24 -26 -7 -35 -26 -49 -26 -19 0 8 -5 25 -11 37 -11 20 -13 17 -25
-28 -16 -61 -17 -85 -4 -85 6 0 10 13 10 29 0 17 5 33 11 37 11 7 7 -122 -5
-133 -3 -4 -6 -1 -6 6 0 9 -5 9 -21 1 -26 -14 -29 -11 -35 36 -2 22 -1 32 2
24 5 -9 12 4 20 35 17 64 17 82 1 82 -9 0 -12 -12 -10 -39 2 -21 -2 -38 -7
-38 -6 0 -10 10 -10 23 0 12 -8 31 -16 42 l-16 20 5 -20 c15 -58 18 -85 8 -85
-6 0 -11 14 -11 30 0 20 -5 30 -15 30 -9 0 -15 10 -16 23 -1 18 -3 16 -11 -10
-10 -30 -12 -32 -25 -15 -13 15 -14 13 -8 -22 3 -21 11 -50 16 -64 8 -21 12
-23 19 -12 8 13 10 12 14 0 10 -32 13 -71 6 -75 -16 -10 -69 89 -71 133 -2 24
-8 47 -14 52 -8 7 -10 0 -7 -23 4 -31 4 -31 -12 -12 -15 19 -15 17 -16 -28 0
-27 -4 -46 -9 -43 -13 8 -39 96 -39 134 -1 28 1 30 14 18 8 -8 14 -27 15 -43
l1 -28 7 31 c10 41 17 51 41 57 12 3 18 1 14 -5 -4 -6 1 -8 14 -4 11 4 23 2
28 -5 4 -8 11 -4 20 12 7 13 13 18 14 12 0 -18 20 -16 20 2 0 18 17 20 22 4 2
-7 9 -10 15 -8 8 3 7 10 -2 23 -14 19 -17 19 -142 -8 -71 -16 -133 -35 -139
-43 -10 -11 -13 -11 -17 -1 -4 8 -8 4 -13 -10 -5 -16 -9 -20 -14 -11 -6 9 -20
9 -62 -3 -29 -9 -52 -19 -51 -24 1 -5 -11 -9 -26 -10 -29 -1 -146 -49 -172
-71 -8 -7 -23 -13 -32 -13 -9 0 -17 -4 -17 -10 0 -5 -7 -10 -16 -10 -10 0 -14
-6 -10 -15 3 -8 1 -15 -3 -15 -5 0 -11 4 -13 9 -2 5 -28 -9 -58 -30 -30 -21
-62 -42 -70 -45 -21 -10 -122 -95 -138 -116 -7 -10 -19 -18 -25 -19 -7 0 -38
-29 -69 -64 -31 -35 -59 -60 -62 -57 -11 11 -6 1075 5 1115 12 45 44 85 77 98
14 5 911 9 2153 9 l2129 0 35 -23 c57 -36 64 -79 60 -362 -2 -132 -3 -246 -4
-252 -1 -8 -15 -13 -35 -13 -33 0 -53 -20 -40 -41 9 -16 24 -10 24 10 0 15 6
19 33 17 18 -1 39 -6 45 -10 7 -4 12 -1 12 7 0 8 9 17 20 20 15 4 20 1 18 -10
-4 -22 19 -28 24 -6 3 10 -6 28 -21 41 -14 13 -20 21 -13 17 16 -8 16 27 -1
44 -10 11 -8 12 11 6 25 -7 32 12 7 21 -8 4 -15 10 -15 16 0 5 4 6 10 3 11 -7
14 18 4 28 -12 11 -12 67 -1 67 7 0 7 4 -1 12 -17 17 -15 28 6 29 14 0 14 2 2
7 -8 4 -16 15 -18 26 -2 12 1 15 8 11 9 -6 9 -2 1 13 -14 27 -14 35 1 26 7 -5
8 -3 3 7 -5 7 -10 23 -11 35 -2 18 1 21 14 17 15 -6 16 -5 2 12 -12 15 -12 19
-2 23 10 3 9 9 -5 25 -10 11 -13 18 -8 14 7 -3 11 11 11 39 0 24 -4 44 -9 44
-5 0 -7 7 -3 15 3 8 -1 21 -9 29 -18 18 -19 33 -2 39 6 3 2 6 -10 6 -13 1 -23
6 -23 11 0 6 -7 10 -15 10 -8 0 -15 4 -15 10 0 5 -20 15 -45 21 -29 7 -42 15
-38 23 5 8 3 8 -8 1 -16 -12 -39 -13 -56 -2 -7 4 -16 0 -22 -10 -10 -17 -10
-17 -11 1 0 15 -3 16 -15 6 -12 -10 -15 -10 -15 1 -1 9 -5 8 -15 -5 -14 -19
-15 -19 -15 -2 0 14 -3 16 -13 7 -10 -8 -17 -7 -25 1 -9 9 -12 9 -12 -1 0 -11
-3 -11 -15 -1 -8 7 -15 8 -15 3 0 -5 -12 -8 -27 -8 -16 1 -34 -3 -40 -8 -9 -7
-13 -4 -13 7 0 11 -4 14 -12 10 -19 -12 -48 -12 -48 -1 0 6 -5 6 -12 1 -7 -5
-33 -9 -58 -8 -25 1 -51 -3 -57 -9 -9 -6 -13 -6 -13 3 0 7 -7 10 -15 6 -8 -3
-15 -1 -15 5 0 6 -7 6 -20 -1 -15 -8 -20 -8 -20 1 0 9 -3 9 -14 0 -11 -9 -16
-9 -21 0 -6 8 -10 7 -16 -2 -7 -12 -9 -12 -9 0 0 9 -4 10 -12 4 -7 -5 -24 -8
-38 -7 -14 1 -28 -3 -32 -10 -5 -7 -8 -3 -8 9 -1 20 -1 20 -15 1 -14 -19 -15
-19 -15 -2 0 15 -3 16 -14 7 -11 -9 -15 -9 -19 1 -4 10 -8 10 -16 -2 -8 -12
-13 -12 -22 -3 -10 10 -15 9 -25 -5 -8 -9 -14 -12 -14 -5 0 8 -14 10 -40 8
-24 -2 -40 1 -40 7 0 7 -5 7 -12 1 -7 -5 -24 -8 -38 -7 -14 1 -28 -3 -32 -10
-5 -7 -8 -4 -8 8 0 14 -3 16 -13 7 -10 -8 -17 -7 -25 1 -8 8 -12 8 -12 2 0 -7
-23 -11 -55 -10 -30 1 -55 4 -55 8 0 4 -6 5 -12 3 -29 -10 -99 -11 -105 -2 -3
5 -9 3 -14 -4 -8 -12 -10 -12 -18 0 -6 10 -10 10 -16 1 -6 -9 -10 -9 -16 1 -6
9 -12 10 -16 4 -11 -14 -33 -17 -33 -4 0 8 -4 8 -14 0 -10 -8 -16 -9 -21 -1
-3 6 -12 7 -18 3 -21 -13 -47 -10 -47 6 -1 14 -2 14 -13 1 -14 -17 -47 -23
-47 -8 0 7 -5 6 -13 -1 -8 -6 -17 -8 -21 -4 -10 11 -60 9 -68 -2 -5 -6 -11 -6
-19 2 -7 7 -21 8 -46 1 -29 -8 -37 -6 -47 8 -12 16 -14 16 -24 -2 -7 -11 -12
-13 -12 -6 0 8 -5 10 -12 6 -16 -10 -58 -14 -58 -6 0 10 -82 9 -97 -1 -8 -5
-13 -3 -13 3 0 7 -7 10 -15 6 -8 -3 -15 0 -15 6 0 7 -5 6 -15 -2 -8 -7 -15 -9
-15 -5 0 4 -7 2 -15 -5 -12 -10 -15 -10 -15 1 0 10 -3 10 -12 1 -9 -9 -14 -7
-24 6 -8 10 -13 12 -14 5 0 -9 -11 -11 -35 -8 -23 3 -35 0 -35 -8 0 -7 -7 -3
-15 7 -8 11 -15 15 -15 8 0 -14 -42 -12 -52 3 -5 7 -8 6 -8 -1 0 -6 -35 -10
-95 -10 -53 0 -95 4 -95 10 0 5 -10 1 -22 -10 -21 -19 -21 -19 -15 6 6 24 6
24 -10 5 -11 -14 -17 -16 -20 -7 -4 9 -8 10 -18 2 -10 -8 -15 -8 -20 0 -5 8
-11 5 -21 -7 -12 -17 -13 -16 -14 7 l0 24 -15 -21 c-15 -21 -55 -22 -55 0 0 5
-9 2 -20 -8 -19 -18 -20 -17 -20 6 l-1 24 -14 -25 c-8 -14 -14 -20 -15 -14 0
13 -48 13 -67 1 -9 -6 -13 -2 -13 10 -1 17 -1 17 -14 0 -14 -18 -15 -18 -25 0
-10 17 -10 17 -11 -1 0 -18 -1 -18 -20 -1 -13 12 -20 14 -20 5 0 -7 -7 -10
-15 -7 -8 4 -17 2 -21 -4 -3 -6 -11 -3 -20 8 -11 14 -13 15 -14 3 0 -12 -4
-10 -15 4 -15 19 -15 19 -15 -5 -1 -22 -2 -23 -14 -6 -13 17 -14 17 -20 0 -6
-15 -8 -15 -17 -3 -8 13 -10 13 -19 0 -7 -12 -10 -8 -10 15 -1 29 -1 30 -13 7
-10 -17 -15 -20 -25 -10 -9 9 -12 8 -12 -8 0 -16 -2 -17 -10 -4 -8 13 -11 13
-19 1 -7 -11 -11 -8 -17 10 l-8 24 -6 -25 -7 -25 -11 25 c-9 22 -11 23 -17 8
-9 -22 -28 -12 -21 11 5 13 3 12 -8 -3 -8 -10 -19 -15 -25 -11 -6 3 -11 -2
-11 -12 -1 -17 -1 -17 -14 0 -13 17 -14 17 -20 0 -6 -15 -8 -15 -17 -3 -8 13
-10 13 -19 0 -8 -13 -10 -12 -10 3 0 9 -4 17 -10 17 -5 0 -10 -7 -10 -16 0 -8
-4 -12 -10 -9 -5 3 -10 16 -10 28 -1 20 -2 21 -14 5 -7 -10 -16 -18 -19 -18
-3 0 -8 8 -10 18 -3 10 -5 4 -6 -13 l-2 -30 -14 25 -14 25 -1 -25 -1 -25 -14
25 c-11 19 -14 21 -15 8 0 -10 -4 -18 -9 -18 -5 0 -12 8 -14 18 -3 12 -5 11
-6 -6 -2 -35 -21 -16 -21 21 0 22 -3 28 -9 18 -5 -7 -6 -22 -4 -32 3 -10 0
-19 -6 -19 -6 0 -11 8 -12 18 -1 11 -4 8 -9 -8 l-7 -25 -11 25 c-10 24 -11 24
-11 3 -1 -25 -16 -31 -24 -10 -4 9 -8 9 -15 -2 -14 -20 -25 4 -12 28 5 11 6
22 1 25 -5 3 -12 -9 -15 -27 -7 -31 -8 -31 -21 -13 -13 17 -15 18 -15 3 0 -22
-17 -22 -23 1 -4 16 -5 16 -6 0 0 -10 -5 -18 -11 -18 -5 0 -10 8 -10 18 -1 13
-4 11 -15 -8 -8 -14 -14 -19 -15 -12 0 8 -6 12 -12 9 -7 -2 -18 5 -25 17 l-12
21 -1 -22 c0 -12 -4 -25 -10 -28 -5 -3 -10 3 -10 14 0 11 -4 23 -10 26 -6 3
-10 -4 -10 -17 -1 -21 -2 -22 -14 -5 -13 17 -14 17 -21 0 -6 -16 -8 -15 -20 7
l-14 25 -1 -25 c-1 -24 -1 -24 -15 -6 -13 17 -15 17 -15 3 0 -10 -5 -14 -15
-11 -9 4 -15 0 -15 -7 -1 -8 -7 -3 -15 11 -11 19 -14 21 -15 8 0 -10 -4 -18
-10 -18 -5 0 -10 8 -10 18 -1 16 -1 16 -14 0 -7 -10 -16 -18 -19 -18 -3 0 -8
8 -10 18 -4 16 -5 16 -6 -1 -2 -27 -21 -10 -21 19 0 14 -4 22 -10 19 -5 -3
-10 -21 -10 -38 l-1 -32 -13 24 -14 24 -7 -23 -7 -23 -19 24 -19 24 7 -35 c6
-34 6 -34 -11 -17 -23 22 -31 16 -16 -12 19 -37 -6 -22 -34 19 -31 48 -33 60
-5 34 20 -18 20 -18 16 7 -3 14 -1 32 4 40 7 11 9 9 9 -8 0 -33 13 -28 29 10
l13 32 8 -25 c8 -24 8 -23 9 7 1 38 -6 44 -39 30z m-40 -175 c-5 -2 -10 -13
-10 -23 0 -11 -4 -18 -9 -15 -5 4 -11 0 -14 -6 -3 -10 -10 -8 -25 5 -13 12
-22 15 -27 7 -3 -5 -11 -8 -16 -5 -5 3 -6 -1 -2 -10 4 -12 8 -13 13 -4 12 19
57 -21 55 -50 -1 -12 -6 -26 -12 -29 -15 -10 -10 -55 7 -69 13 -11 13 -12 -2
-13 -18 0 -18 -20 0 -43 9 -11 10 -17 2 -22 -8 -5 -8 -11 1 -21 9 -11 8 -14
-2 -14 -10 0 -10 -3 -1 -12 17 -17 15 -33 -3 -18 -8 7 -15 8 -15 2 0 -5 7 -15
15 -22 11 -9 12 -16 5 -25 -5 -6 -7 -15 -3 -19 4 -3 7 -16 8 -27 2 -18 -2 -20
-29 -15 -22 5 -27 3 -20 -4 6 -6 21 -12 32 -13 12 0 24 -7 26 -14 3 -8 -1 -10
-12 -6 -14 5 -15 3 -4 -8 17 -18 15 -30 -3 -23 -22 9 -18 -14 5 -28 11 -7 20
-16 20 -21 0 -4 -4 -6 -9 -3 -10 7 -24 -22 -16 -34 3 -5 0 -12 -6 -16 -8 -4
-7 -9 2 -16 10 -7 5 -8 -13 -4 -16 4 -28 4 -28 1 0 -2 16 -21 35 -41 38 -39
43 -49 20 -40 -8 3 -15 1 -15 -3 0 -5 6 -11 13 -14 6 -2 9 -8 5 -12 -4 -4 -16
-2 -25 6 -14 11 -14 9 2 -11 11 -14 25 -29 30 -33 6 -5 0 -5 -13 -2 -13 4 -22
2 -22 -4 0 -6 5 -11 11 -11 7 0 8 -7 4 -17 -12 -28 -13 -83 -1 -90 5 -4 1 -10
-10 -14 -17 -7 -17 -8 -1 -8 19 -1 23 -16 6 -27 -7 -4 -7 -10 -1 -16 6 -6 8
-17 5 -24 -3 -9 3 -14 18 -15 21 -1 21 -2 4 -6 -29 -8 -46 -35 -32 -51 8 -10
7 -16 -4 -23 -12 -7 -12 -9 1 -9 13 0 13 -1 0 -10 -13 -8 -12 -10 3 -10 15 0
17 -5 11 -22 -11 -32 -11 -81 0 -95 5 -8 4 -13 -3 -13 -6 0 -11 -4 -11 -10 0
-5 7 -10 15 -10 8 0 15 -5 15 -11 0 -5 -4 -8 -9 -5 -4 3 -17 -4 -27 -15 -16
-18 -16 -19 -1 -13 12 4 17 1 17 -10 0 -9 -4 -16 -10 -16 -5 0 -10 -11 -10
-25 0 -14 -4 -25 -9 -25 -5 0 -13 -10 -16 -22 -12 -41 -30 -78 -37 -78 -4 0
-6 31 -4 70 2 44 -1 71 -8 74 -6 2 -3 5 7 5 9 1 17 4 17 7 0 4 -8 13 -17 20
-17 13 -17 13 0 14 9 0 17 5 17 10 0 6 -8 10 -17 11 -11 0 -13 3 -5 6 6 2 12
14 12 24 0 11 5 29 10 40 6 11 7 19 1 19 -15 0 -22 32 -10 46 7 9 8 18 2 27
-5 6 -8 25 -7 42 2 16 -2 35 -8 42 -8 10 -6 13 6 13 19 0 21 11 4 28 -9 9 -9
12 1 12 7 0 9 5 5 12 -12 19 -12 48 -1 48 5 0 4 6 -2 14 -6 7 -9 20 -5 29 3 8
0 25 -6 37 -11 20 -10 21 8 11 18 -9 19 -8 14 11 -3 14 -1 19 6 14 7 -4 12 -2
12 4 0 8 -10 10 -27 6 -21 -5 -24 -4 -13 4 8 5 11 10 7 10 -4 0 -2 10 5 23 15
27 11 59 -8 70 -20 11 -17 30 3 23 15 -6 15 -4 -2 14 -16 18 -16 20 -2 20 20
0 22 11 5 28 -9 9 -8 12 6 12 13 0 16 5 10 23 -3 12 -14 30 -23 41 -15 18 -15
18 7 12 28 -9 28 -3 0 25 -18 17 -19 21 -5 16 21 -8 21 -3 1 29 -17 24 -17 24
10 15 33 -13 33 -7 0 24 -22 21 -23 23 -5 18 27 -7 26 1 -1 27 -17 16 -18 20
-6 20 9 0 19 7 22 16 4 10 2 13 -6 8 -7 -5 -9 -2 -5 8 3 9 0 21 -6 27 -8 8 -6
11 9 11 17 1 17 3 -6 22 -16 14 -19 19 -7 15 9 -4 17 -4 17 0 0 3 -8 12 -17
19 -15 11 -16 13 -2 14 8 0 20 -4 27 -10 9 -7 9 -7 2 2 -6 7 -10 20 -10 30 0
10 -7 21 -15 24 -8 4 -12 10 -9 15 3 5 10 7 15 4 13 -9 11 9 -3 23 -9 9 -9 12
4 12 11 0 14 8 12 27 -3 34 7 88 15 75 3 -5 21 -11 38 -14 27 -4 31 -2 21 10
-9 10 -9 15 1 21 10 6 9 10 -3 14 -9 4 -16 17 -16 29 0 21 4 19 35 -17 20 -22
31 -41 25 -43z m-66 23 c3 -8 1 -15 -3 -15 -5 0 -11 7 -15 15 -3 8 -1 15 3 15
5 0 11 -7 15 -15z m1596 -645 c0 -5 -2 -10 -4 -10 -3 0 -8 5 -11 10 -3 6 -1
10 4 10 6 0 11 -4 11 -10z m73 3 c-7 -2 -19 -2 -25 0 -7 3 -2 5 12 5 14 0 19
-2 13 -5z m-313 -33 c0 -5 -4 -10 -10 -10 -5 0 -10 5 -10 10 0 6 5 10 10 10 6
0 10 -4 10 -10z m2078 -106 c-18 -39 -23 -45 -26 -27 -3 19 36 88 45 79 2 -1
-7 -25 -19 -52z m-48 40 c0 -8 -39 -63 -62 -88 -16 -18 -18 -18 -18 -3 0 10 7
20 15 23 8 3 17 16 21 27 3 12 11 28 16 35 11 12 28 17 28 6z m164 -21 c-4
-16 -15 -38 -26 -50 -15 -16 -18 -29 -13 -52 4 -20 3 -31 -4 -31 -19 0 -12 63
11 112 25 52 42 63 32 21z m-654 9 c0 -22 -47 -95 -93 -143 -34 -35 -35 -36
-29 -4 2 14 11 25 18 25 8 0 14 3 14 8 0 4 11 20 25 36 13 15 30 41 37 57 12
27 28 39 28 21z m-951 -49 c-19 -30 -24 -34 -27 -20 -4 18 36 72 46 62 2 -2
-6 -21 -19 -42z m-955 -15 c8 -53 25 -102 49 -147 18 -33 15 -60 -3 -31 -8 12
-10 10 -10 -7 0 -13 -3 -23 -7 -23 -12 0 -35 17 -34 24 3 13 -31 116 -39 121
-5 3 -6 -10 -3 -30 4 -23 2 -35 -6 -35 -7 0 -11 22 -12 58 -1 52 -2 54 -11 28
-11 -29 5 -129 24 -151 10 -12 10 -35 0 -35 -5 0 -14 10 -20 23 -10 22 -11 22
-11 -5 -1 -20 -5 -26 -16 -22 -8 4 -15 1 -15 -5 0 -20 -24 -38 -43 -33 -10 2
-27 21 -38 41 -10 20 -23 43 -28 51 -5 8 -14 29 -21 45 -9 20 -14 25 -18 16
-3 -8 0 -17 7 -19 6 -2 11 -12 11 -21 0 -10 14 -39 31 -65 34 -50 33 -75 -1
-35 l-20 24 7 -35 c6 -32 5 -34 -10 -21 -15 12 -17 11 -17 -4 0 -17 -1 -17
-20 0 -11 10 -20 24 -20 31 0 7 -8 15 -17 18 -20 7 -53 67 -53 96 0 25 -17 26
-22 3 -5 -22 12 -65 29 -76 23 -14 73 -95 62 -99 -15 -5 -65 45 -85 84 -9 16
-18 28 -20 25 -5 -5 14 -59 24 -67 4 -3 16 -16 27 -29 17 -21 17 -23 3 -18
-12 4 -15 2 -11 -9 8 -21 -6 -17 -28 9 -15 18 -18 19 -19 5 0 -9 5 -20 10 -23
6 -3 10 -11 10 -17 0 -7 -13 1 -30 17 -40 38 -46 28 -9 -14 58 -67 17 -43 -57
33 -42 42 -79 75 -81 72 -8 -7 34 -58 63 -77 28 -18 80 -89 66 -89 -12 0 -72
67 -72 80 0 5 -6 10 -14 10 -22 0 -67 68 -71 108 -3 33 -2 35 8 16 10 -18 14
-20 25 -8 6 7 12 18 12 24 0 5 5 10 10 10 13 0 13 -6 0 -31 -9 -15 -4 -26 27
-59 21 -22 42 -40 46 -40 14 0 -27 60 -45 66 -18 5 -26 44 -9 44 5 0 12 10 16
23 4 13 8 17 12 10 7 -18 26 -16 20 1 -4 10 -1 13 9 9 8 -3 14 -19 14 -41 0
-19 7 -44 17 -54 9 -10 13 -21 9 -26 -9 -8 -33 21 -51 62 -9 21 -14 24 -18 13
-3 -9 7 -33 24 -56 28 -40 49 -52 49 -30 0 8 5 7 16 -2 11 -9 10 -2 -5 25 -12
21 -21 43 -20 49 1 7 -3 25 -9 40 -16 38 -15 56 2 35 15 -21 30 -24 23 -5 -2
6 -7 23 -11 37 -6 21 -5 22 4 8 17 -28 33 -22 25 10 -6 26 -6 26 8 7 14 -18
17 -18 34 -4 34 29 40 29 35 0 -2 -16 1 -39 8 -51 17 -32 25 -16 10 20 -10 23
-10 34 -1 43 6 6 11 19 11 29 0 10 5 18 10 18 6 0 10 -4 10 -8 0 -5 7 -9 15
-9 8 0 15 4 15 9 0 5 12 13 26 18 14 6 22 15 18 21 -4 8 0 8 15 0 18 -10 21
-9 21 9 0 11 4 20 10 20 5 0 7 -7 4 -15 -7 -18 -4 -18 32 -5 21 8 29 8 36 -2
5 -9 8 -6 8 10 0 18 6 22 29 22 26 0 29 -4 35 -42z m2387 -16 c-23 -45 -41
-61 -41 -38 0 9 4 16 9 16 5 0 13 10 17 23 7 25 25 49 31 43 2 -2 -5 -22 -16
-44z m-2022 -34 c0 -40 -3 -67 -6 -60 -7 17 -23 15 -23 -4 0 -8 -4 -12 -10 -9
-13 8 -13 65 -1 65 5 0 11 -6 14 -12 3 -7 5 -4 6 7 1 18 8 76 10 83 1 1 3 2 6
2 3 0 5 -33 4 -72z m1737 12 c-14 -22 -26 -44 -26 -50 0 -5 -4 -10 -10 -10
-14 0 -12 26 3 42 7 7 22 28 32 46 11 18 21 28 23 22 2 -6 -8 -29 -22 -50z
m520 34 c-4 -14 -11 -31 -17 -37 -5 -7 -16 -21 -24 -32 -14 -20 -14 -20 -15 2
0 12 6 28 13 35 8 7 19 23 26 36 16 30 25 28 17 -4z m565 -27 c-8 -8 -14 -8
-22 0 -7 7 -5 16 8 28 17 18 18 18 21 1 2 -10 -1 -23 -7 -29z m345 6 c-11 -11
-17 4 -9 23 7 18 8 18 11 1 2 -10 1 -21 -2 -24z m-3356 6 c0 -5 9 -22 21 -38
13 -18 19 -39 17 -57 -4 -28 -5 -27 -26 19 -29 64 -39 102 -23 93 6 -4 11 -12
11 -17z m683 -23 c-10 -25 -25 -47 -35 -49 -10 -3 -18 -1 -18 4 0 5 5 9 10 9
6 0 10 7 10 15 0 8 4 15 9 15 5 0 12 11 15 25 4 14 11 25 16 25 5 0 2 -20 -7
-44z m1693 -7 c-10 -24 -15 -28 -15 -14 -1 34 11 67 21 57 6 -6 3 -22 -6 -43z
m-2786 31 c0 -5 -2 -10 -4 -10 -3 0 -8 5 -11 10 -3 6 -1 10 4 10 6 0 11 -4 11
-10z m797 -40 c0 -27 -3 -50 -8 -50 -5 0 -9 7 -9 15 0 8 -4 15 -10 15 -16 0
-12 24 8 48 9 12 17 22 18 22 0 0 1 -22 1 -50z m937 2 c-9 -20 -18 -43 -21
-49 -6 -16 -43 -17 -43 -3 0 6 6 13 14 16 7 3 21 23 31 44 22 50 40 42 19 -8z
m1467 11 c-10 -17 -10 -16 -11 3 0 23 13 41 18 25 2 -6 -1 -18 -7 -28z m-2151
20 c0 -5 -5 -15 -10 -23 -8 -12 -10 -11 -10 8 0 12 5 22 10 22 6 0 10 -3 10
-7z m796 -38 c-3 -52 -12 -68 -21 -33 -5 21 8 78 18 78 3 0 4 -20 3 -45z m884
40 c0 -3 -7 -17 -16 -30 -23 -36 -39 -31 -17 5 15 27 33 40 33 25z m-1833 -25
c-3 -11 -1 -20 4 -20 5 0 9 5 9 10 0 6 5 10 10 10 13 0 13 -47 0 -55 -6 -3
-13 1 -16 9 -3 9 -10 13 -15 10 -5 -3 -9 9 -9 25 0 17 5 31 11 31 6 0 9 -9 6
-20z m1106 -15 c-3 -19 -13 -34 -29 -42 -32 -15 -31 0 2 44 30 40 33 39 27 -2z
m361 -3 c-7 -33 -24 -44 -24 -16 0 18 20 58 26 51 2 -2 1 -18 -2 -35z m262
-14 c-13 -19 -16 -19 -16 -5 0 9 6 26 13 37 9 16 13 17 15 6 2 -9 -4 -26 -12
-38z m437 19 c-7 -11 -23 2 -23 19 0 12 2 12 14 2 8 -7 12 -16 9 -21z m-1933
-16 c-12 -23 -30 -28 -30 -9 0 14 34 48 38 37 2 -4 -2 -17 -8 -28z m1434 17
c-1 -13 -3 -27 -3 -32 -1 -5 -7 -3 -14 3 -8 6 -17 8 -20 4 -4 -3 -7 -1 -7 5 0
7 6 12 14 12 8 0 16 7 20 15 8 22 13 18 10 -7z m-3279 2 c3 -5 1 -10 -4 -10
-6 0 -11 5 -11 10 0 6 2 10 4 10 3 0 8 -4 11 -10z m1059 -44 c30 -64 31 -70
11 -62 -9 3 -18 -1 -22 -10 -5 -13 -8 -13 -22 3 -14 14 -15 26 -7 70 5 29 11
53 12 53 1 0 14 -24 28 -54z m851 33 c4 -12 2 -26 -4 -32 -8 -8 -11 -7 -11 4
0 12 -2 12 -10 -1 -15 -24 -24 -2 -10 25 16 31 27 32 35 4z m569 -13 c-6 -25
-24 -37 -24 -15 0 15 21 52 26 46 3 -3 2 -16 -2 -31z m503 -13 c-4 -17 -4 -17
-12 0 -4 9 -4 25 0 35 8 16 8 16 12 0 3 -10 3 -26 0 -35z m-1629 10 c-4 -39
-28 -42 -28 -4 0 21 5 31 16 31 11 0 14 -8 12 -27z m1278 -21 c-20 -20 -22 -1
-3 28 10 18 12 18 15 4 2 -9 -3 -24 -12 -32z m-270 12 c-4 -9 -9 -15 -11 -12
-3 3 -3 13 1 22 4 9 9 15 11 12 3 -3 3 -13 -1 -22z m481 -6 c-3 -7 -5 -2 -5
12 0 14 2 19 5 13 2 -7 2 -19 0 -25z m-831 -4 c-4 -9 -9 -15 -11 -12 -3 3 -3
13 1 22 4 9 9 15 11 12 3 -3 3 -13 -1 -22z m2474 -168 c1 -99 1 -912 2 -1806
l2 -1625 -27 -47 c-15 -25 -35 -50 -45 -55 -9 -4 -257 -9 -549 -11 -332 -2
-533 -6 -533 -12 0 -6 -5 -10 -11 -10 -5 0 -7 5 -4 10 4 7 -106 10 -324 10
l-331 0 -4 23 c-3 12 -8 121 -11 242 -6 279 -22 693 -33 900 -5 88 -9 171 -10
185 -10 249 -14 337 -18 349 -2 7 -6 81 -9 164 -3 108 -8 153 -17 158 -10 7
-10 9 1 9 11 0 12 13 8 63 -9 86 -30 436 -29 470 1 15 -3 27 -8 27 -6 0 -10
-7 -10 -15 0 -8 -5 -15 -11 -15 -8 0 -8 -4 -1 -13 6 -7 10 -38 9 -70 -1 -31 3
-59 8 -60 6 -3 6 -15 -2 -35 -7 -20 -8 -34 -2 -38 6 -4 6 -11 -1 -19 -8 -10
-7 -16 7 -24 17 -10 17 -10 -1 -11 -15 0 -16 -3 -6 -15 10 -12 10 -15 -1 -15
-10 0 -9 -4 3 -17 16 -15 16 -17 0 -29 -16 -13 -16 -13 1 -14 20 0 23 -16 5
-23 -9 -4 -10 -8 -2 -14 15 -11 13 -43 -3 -43 -19 0 -16 -17 7 -40 11 -11 16
-20 11 -20 -5 0 -8 -11 -7 -25 0 -14 5 -25 9 -25 5 0 1 -7 -8 -16 -15 -15 -15
-18 2 -37 13 -14 15 -21 6 -24 -16 -6 -17 -33 -2 -33 5 0 7 -4 4 -10 -3 -5 -1
-10 4 -10 6 0 11 -4 11 -10 0 -5 -8 -6 -17 -3 -16 6 -16 5 -4 -10 12 -15 11
-17 -8 -17 -21 0 -21 -1 -5 -25 9 -14 19 -23 23 -21 4 3 8 -15 9 -39 1 -35 -1
-43 -13 -39 -8 4 -15 1 -15 -5 0 -6 6 -10 13 -9 6 2 12 -4 12 -12 0 -8 4 -21
8 -27 6 -9 3 -11 -10 -6 -17 7 -17 6 0 -20 15 -23 15 -27 3 -27 -21 0 -8 -30
13 -30 14 -1 13 -3 -3 -15 -18 -14 -18 -16 -3 -33 23 -25 21 -32 -5 -33 -22 0
-22 -1 -3 -9 19 -8 19 -8 -5 -18 l-25 -10 28 -7 c30 -8 36 -24 10 -26 -17 -1
-17 -2 0 -6 9 -2 17 -13 17 -24 0 -16 -4 -19 -22 -13 -23 7 -23 6 -5 -14 11
-11 16 -26 12 -32 -4 -6 -1 -17 5 -25 10 -12 9 -15 -4 -15 -24 0 -20 -17 7
-25 19 -6 20 -8 4 -12 -14 -4 -16 -8 -6 -19 9 -11 9 -14 -1 -14 -10 0 -10 -3
0 -15 7 -8 10 -22 6 -30 -3 -9 0 -15 9 -15 8 0 15 -4 15 -10 0 -13 -6 -13 -31
0 -11 6 -19 7 -19 1 0 -5 7 -12 16 -15 8 -3 14 -14 12 -23 -2 -10 3 -23 12
-30 13 -11 11 -12 -10 -13 l-25 -1 24 -19 c22 -19 17 -25 -18 -20 -8 1 -1 -10
15 -25 l29 -26 -30 6 c-30 6 -30 6 -7 -10 12 -9 22 -25 22 -36 0 -10 5 -19 12
-19 6 0 4 -6 -7 -14 -10 -7 -31 -12 -47 -10 -15 2 -28 -1 -28 -6 0 -6 21 -10
46 -10 39 0 45 -2 34 -14 -6 -8 -21 -17 -33 -19 -20 -4 -19 -4 3 -6 19 -1 26
-7 27 -23 1 -11 8 -25 15 -29 11 -7 11 -9 0 -9 -7 0 -10 -5 -7 -10 3 -6 1 -10
-6 -10 -8 0 -8 -4 2 -16 10 -13 10 -17 -2 -25 -8 -5 -22 -9 -31 -9 -9 0 -20
-5 -24 -11 -4 -8 3 -9 26 -4 23 5 35 3 41 -6 14 -23 10 -31 -11 -24 -11 4 -20
2 -20 -4 0 -6 8 -11 18 -11 15 -1 15 -2 -2 -15 -19 -15 -19 -15 3 -15 12 0 19
-4 16 -10 -4 -6 -11 -8 -16 -5 -5 4 -9 1 -9 -4 0 -6 5 -11 10 -11 24 0 7 -20
-17 -21 -27 -1 -27 -1 5 -10 39 -12 42 -29 5 -30 l-28 -1 28 -10 c15 -5 27
-14 27 -20 0 -6 -11 -7 -27 -4 l-28 7 25 -17 c14 -10 27 -19 30 -21 2 -2 -1
-8 -8 -12 -10 -6 -10 -14 -2 -36 13 -34 11 -36 -37 -39 -21 -2 -50 -3 -65 -4
-15 -1 -33 -9 -41 -17 -13 -12 -19 -13 -41 -1 -33 17 -23 26 26 26 21 0 38 5
38 10 0 6 11 8 25 4 14 -4 25 -2 25 4 0 16 -20 20 -84 14 -48 -4 -60 -2 -68
11 -5 10 -18 17 -28 17 -10 0 -21 4 -24 9 -6 9 49 21 97 21 15 0 27 5 27 10 0
6 19 10 42 10 32 0 39 3 30 12 -15 15 -72 15 -81 -1 -7 -10 -17 -10 -52 1
l-44 13 50 3 c28 2 54 7 60 13 5 5 26 9 47 9 21 0 38 5 38 10 0 11 -73 14 -84
3 -4 -4 -23 -6 -42 -4 -18 1 -34 -2 -34 -7 0 -11 -27 -13 -60 -4 -21 5 -18 7
20 12 35 5 41 8 25 14 -57 22 -67 27 -62 32 2 3 22 -2 42 -10 42 -18 121 -21
130 -6 4 6 15 8 26 5 10 -4 29 1 41 10 22 16 21 16 -32 12 -30 -2 -62 -7 -72
-11 -9 -4 -31 -5 -48 -2 -34 5 -52 16 -29 17 78 4 168 20 178 33 12 14 -58 20
-75 6 -17 -15 -151 -24 -159 -11 -4 7 9 12 37 13 24 1 52 2 63 2 31 2 115 28
115 36 0 4 -15 10 -34 12 -19 2 -33 1 -30 -3 4 -6 -53 -18 -123 -25 -18 -2
-36 2 -39 8 -4 7 -3 8 4 4 7 -4 12 -2 12 3 0 6 17 11 38 11 20 1 64 7 96 15
33 8 63 12 68 9 4 -3 8 0 8 6 0 19 -31 24 -68 10 -20 -7 -62 -14 -94 -16 -32
-1 -67 -5 -77 -9 -11 -3 -22 -2 -25 4 -8 12 33 22 113 27 36 2 68 8 71 14 3 5
25 11 48 12 23 1 42 5 42 10 0 4 10 8 22 8 16 0 19 3 11 11 -7 7 -22 7 -49 1
-89 -23 -186 -34 -197 -23 -8 8 -1 11 26 11 20 0 37 5 37 10 0 6 11 8 26 4 14
-4 35 -2 47 4 12 6 33 12 46 14 14 2 26 9 29 16 5 17 -43 15 -61 -3 -18 -18
-76 -10 -92 12 -8 11 -27 13 -78 10 -37 -3 -67 -2 -67 3 0 5 35 11 78 15 42 4
82 12 89 17 6 5 23 6 37 2 16 -4 26 -2 26 5 0 6 15 11 33 11 30 1 31 2 13 15
-13 10 -25 11 -43 4 -13 -5 -38 -9 -54 -9 -17 0 -28 -3 -26 -7 3 -5 -9 -9 -26
-10 -18 -1 -66 -4 -107 -7 -48 -3 -67 -2 -54 4 31 12 39 30 15 30 -12 0 -21 3
-21 8 0 10 97 32 114 26 8 -3 26 2 41 12 21 14 30 15 52 5 32 -15 29 -18 -27
-24 -25 -3 -63 -9 -85 -13 l-40 -8 35 -6 c19 -3 51 -2 70 2 96 23 133 25 159
12 38 -20 61 -18 31 3 -32 22 -41 35 -35 52 6 16 -30 77 -51 85 -9 3 -24 6
-34 6 -10 0 -22 5 -26 12 -5 7 0 9 14 6 12 -3 23 -1 25 6 3 7 9 6 18 -5 18
-20 49 -32 49 -18 0 6 -9 13 -20 16 -11 3 -17 10 -13 16 13 21 10 48 -3 43
-14 -5 -79 43 -70 51 2 3 18 -5 34 -17 39 -29 78 -20 60 13 -6 12 -13 37 -14
56 -4 38 -26 67 -43 57 -7 -5 -2 -19 16 -42 l26 -35 -29 7 -29 7 29 -32 c43
-45 26 -49 -18 -4 -34 35 -35 38 -16 41 20 3 20 5 -6 35 l-27 32 26 3 c29 4
35 16 15 28 -9 6 -5 10 11 14 14 3 27 12 29 19 3 10 0 12 -12 8 -10 -4 -27 0
-39 8 -21 15 -21 15 6 15 34 0 34 5 0 35 l-28 25 33 -11 c21 -7 32 -17 32 -30
0 -21 5 -22 35 -9 18 8 18 9 -5 9 -20 1 -22 3 -10 11 9 6 10 10 3 10 -7 0 -11
12 -10 28 2 23 -5 30 -41 49 -25 12 -38 24 -32 28 12 8 80 -24 80 -37 0 -5 5
-8 10 -8 6 0 5 8 -2 20 -7 11 -18 20 -24 20 -7 0 -19 11 -28 25 -9 14 -12 25
-6 25 5 0 10 -4 10 -8 0 -11 51 -35 57 -28 8 7 -23 36 -39 36 -10 0 -9 3 2 10
13 8 13 10 -2 10 -9 0 -20 5 -23 10 -11 18 14 11 35 -10 11 -11 25 -20 31 -20
10 0 -26 51 -71 98 -12 13 -20 25 -18 28 3 2 17 -10 33 -26 32 -33 45 -38 45
-15 0 9 -11 20 -25 25 -14 5 -25 11 -25 14 0 2 -3 11 -6 20 -8 22 8 20 33 -4
12 -10 34 -22 50 -25 16 -3 21 -2 12 2 -30 15 -103 83 -88 83 8 0 20 -5 27
-12 19 -19 14 2 -8 29 -11 14 -20 30 -20 35 0 5 9 4 20 -2 28 -15 25 -5 -7 25
-27 24 -27 25 -5 25 12 0 21 5 20 13 -2 6 3 11 11 9 7 -1 -3 20 -24 48 -26 35
-32 50 -22 50 9 0 18 -8 21 -18 3 -9 15 -23 26 -30 19 -12 20 -11 8 10 -7 13
-17 27 -23 31 -6 6 -5 10 3 14 10 4 10 8 1 20 -10 11 -10 16 -1 22 8 5 2 17
-18 40 -33 35 -41 64 -12 38 33 -30 47 -19 18 12 -28 29 -28 30 -5 24 23 -5
23 -5 5 9 -11 9 -17 22 -13 30 3 9 0 21 -6 27 -8 8 -8 11 2 11 8 0 20 -8 27
-17 7 -10 14 -13 14 -7 0 6 -9 19 -20 29 -24 22 -25 29 -5 49 13 13 13 16 0
30 -23 22 -18 28 18 22 17 -3 26 -3 18 0 -37 17 -71 64 -36 50 8 -3 15 -1 15
3 0 5 -7 11 -15 15 -20 7 -19 26 0 26 12 0 13 5 7 18 -5 9 -7 35 -6 57 4 37 5
237 2 260 -1 6 2 23 6 38 4 17 2 27 -5 27 -8 0 -8 4 0 14 9 11 10 20 1 35 -6
12 -7 21 -3 21 5 0 9 28 10 63 1 34 4 90 6 125 2 39 -1 61 -7 59 -6 -2 -11
-19 -12 -38 0 -19 -4 -61 -8 -94 -8 -71 -14 -138 -21 -260 -3 -49 -7 -112 -10
-140 -2 -27 -7 -108 -10 -180 -4 -71 -10 -177 -15 -235 -5 -58 -12 -172 -15
-255 -3 -82 -10 -202 -15 -265 -6 -63 -14 -198 -20 -300 -18 -326 -22 -395
-27 -400 -2 -3 -9 3 -14 12 -5 9 -16 24 -25 33 -8 8 -13 15 -10 15 5 0 -37 64
-114 173 -19 26 -37 47 -42 47 -4 0 -8 7 -8 15 0 22 -14 18 -26 -9 -10 -20 -9
-23 8 -18 21 5 49 -25 41 -45 -3 -8 7 -25 21 -38 15 -13 26 -28 26 -32 0 -5 5
-8 10 -8 6 0 10 -3 10 -8 -1 -13 31 -69 51 -90 13 -14 15 -23 8 -28 -8 -5 -8
-8 0 -13 6 -4 15 -4 21 -1 6 3 7 -1 4 -9 -4 -11 0 -16 10 -16 9 0 16 -3 16 -8
0 -14 -38 -30 -86 -37 -47 -6 -48 -5 -26 11 28 21 29 38 1 24 -28 -16 -39 -2
-14 17 19 15 19 15 -7 11 -32 -6 -38 11 -8 19 11 3 20 9 20 14 0 12 -14 11
-27 -2 -15 -15 -34 -3 -26 16 3 9 -1 15 -10 15 -11 0 -13 6 -9 22 4 16 2 19
-8 13 -10 -6 -12 -4 -7 8 5 14 2 16 -21 11 -25 -5 -26 -4 -9 9 15 13 16 15 2
21 -8 3 -15 12 -15 21 0 8 -5 15 -11 15 -6 0 -9 6 -6 14 4 9 -1 16 -11 19 -13
3 -10 7 11 15 36 15 34 19 -10 14 -29 -2 -34 -1 -23 7 13 10 13 11 0 12 -8 1
-18 1 -22 0 -7 -1 -12 22 -9 42 0 4 -6 7 -15 7 -11 0 -14 6 -8 22 6 21 5 22
-11 8 -17 -14 -18 -13 -13 8 4 15 2 22 -8 22 -8 0 -20 14 -25 30 -6 17 -18 30
-27 30 -8 0 -13 3 -9 6 9 9 -62 76 -73 69 -6 -3 -7 1 -4 9 3 9 1 16 -5 16 -6
0 -11 7 -11 15 0 8 -4 15 -9 15 -4 0 -28 19 -52 43 -24 24 -66 61 -94 82 -27
22 -52 42 -55 46 -21 23 -81 59 -90 54 -5 -3 -10 1 -10 9 0 9 -3 15 -7 14 -10
-3 -107 45 -111 55 -2 4 -8 4 -13 1 -6 -3 -18 3 -28 15 -10 11 -21 18 -25 14
-3 -3 -6 -1 -6 5 0 7 -9 12 -19 12 -11 0 -27 7 -35 16 -9 8 -20 12 -26 9 -5
-3 -10 -1 -10 6 0 6 -8 9 -20 6 -13 -3 -20 0 -20 9 0 8 -6 11 -15 8 -8 -4 -15
-1 -15 5 0 6 -13 11 -28 11 -16 0 -37 6 -47 14 -14 10 -25 11 -37 5 -14 -8
-16 -6 -11 8 5 12 2 15 -10 10 -9 -3 -17 -3 -17 1 0 11 -90 43 -101 36 -5 -3
-9 2 -9 11 0 12 -7 14 -30 10 -17 -3 -30 -1 -30 5 0 5 -11 10 -25 10 -15 0
-39 7 -56 15 -16 9 -34 13 -39 10 -6 -3 -10 -1 -10 4 0 6 -9 11 -21 11 -14 0
-19 5 -16 14 4 10 1 13 -8 10 -19 -8 -57 15 -49 28 4 6 3 8 -3 5 -17 -10 -74
4 -66 16 4 6 0 8 -10 4 -10 -3 -17 -2 -17 3 0 6 -12 10 -26 10 -18 0 -28 6
-31 20 -4 15 -11 19 -25 14 -14 -4 -18 -3 -13 5 4 8 -1 11 -17 10 -37 -3 -72
0 -65 7 9 9 -19 34 -38 34 -9 0 -13 5 -10 10 3 6 1 10 -5 10 -6 0 -9 4 -6 9 3
4 -6 7 -20 5 -19 -2 -24 1 -20 13 5 12 1 14 -14 10 -27 -7 -25 7 3 21 18 9 15
10 -20 5 -36 -5 -43 -3 -43 11 0 10 -5 14 -11 10 -8 -4 -9 1 -4 16 5 14 3 20
-3 16 -14 -8 -43 4 -36 15 3 5 10 7 15 4 5 -3 6 0 3 8 -3 9 -13 13 -26 9 -14
-3 -19 -1 -14 6 4 7 1 12 -8 12 -9 0 -16 5 -16 10 0 6 8 10 18 10 9 0 24 5 32
10 11 7 2 8 -28 4 -34 -5 -42 -4 -40 7 2 8 8 17 13 21 6 4 0 8 -13 8 -13 0
-20 4 -17 10 7 12 -25 70 -40 70 -5 0 -3 4 5 10 11 7 8 11 -15 21 -25 10 -27
13 -11 17 26 6 71 -19 54 -30 -8 -5 1 -7 22 -7 29 0 31 2 15 9 -14 6 -15 9 -5
10 8 1 2 7 -15 13 -44 18 -77 38 -71 44 2 3 26 -3 51 -12 33 -13 49 -15 57 -7
7 7 -3 12 -35 17 -45 7 -82 34 -76 54 2 6 17 0 33 -14 16 -14 42 -25 58 -25
41 0 34 19 -10 26 -49 8 -98 46 -85 68 8 14 11 14 38 0 17 -9 55 -17 85 -17
38 -2 54 -6 53 -14 -2 -7 1 -13 6 -13 5 0 7 -9 4 -20 -3 -11 -10 -20 -17 -20
-6 0 -5 -4 3 -9 17 -11 23 -83 7 -93 -7 -5 -4 -8 7 -8 10 0 15 -4 12 -10 -3
-5 1 -10 10 -10 9 0 13 -4 10 -10 -3 -5 -1 -10 5 -10 7 0 9 -8 5 -22 -6 -16
-4 -20 8 -15 11 4 14 0 12 -19 -1 -16 3 -24 12 -24 9 0 13 -6 9 -15 -3 -9 0
-15 9 -15 7 0 17 -9 20 -21 4 -12 12 -18 21 -15 14 5 18 -4 15 -36 -3 -21 15
-24 22 -5 4 8 8 9 14 1 8 -11 43 -27 43 -19 0 2 -27 29 -59 60 -33 31 -72 81
-88 113 -26 52 -28 64 -28 171 l1 116 42 82 c79 155 188 267 372 384 102 65
374 179 426 179 11 0 29 7 40 15 12 8 23 13 25 10 2 -2 31 3 64 12 105 27 305
50 455 52 100 1 147 6 152 14 6 9 8 9 8 0 0 -7 7 -13 15 -13 8 0 15 6 16 13 0
10 2 10 6 0 2 -7 16 -13 29 -13 13 0 24 6 24 13 0 9 2 9 8 -1 7 -10 108 -12
475 -12 509 0 675 3 932 19 156 10 228 13 490 26 50 2 176 9 280 15 105 6 244
14 310 18 66 4 130 8 143 8 l22 2 0 -182z m-3550 80 c0 -15 -3 -16 -15 -6 -8
7 -15 24 -15 38 0 25 1 25 15 6 8 -10 15 -27 15 -38z m-570 -85 c14 -21 17
-32 9 -37 -7 -4 6 -17 32 -34 56 -35 94 -76 80 -85 -6 -3 -14 1 -17 9 -3 9
-12 16 -18 16 -7 0 -34 20 -62 45 -63 57 -94 59 -34 2 25 -23 47 -41 49 -40 8
6 51 -40 51 -54 0 -11 -7 -9 -27 6 -31 25 -39 21 -24 -11 l12 -23 -17 23 c-9
12 -22 22 -28 22 -6 0 -17 10 -25 21 -12 20 -11 21 5 15 15 -6 13 -1 -6 21
-14 15 -29 31 -35 35 -11 8 -15 79 -3 72 4 -3 8 2 8 10 0 26 27 18 50 -13z
m-83 -31 c-3 -13 4 -32 20 -51 32 -37 22 -51 -13 -18 -15 13 -24 17 -20 9 3
-8 9 -23 12 -33 4 -10 13 -16 20 -13 7 3 23 -8 35 -25 12 -17 27 -28 34 -25 7
2 16 -1 18 -9 8 -19 -4 -27 -20 -13 -19 16 -27 3 -8 -15 8 -9 15 -18 15 -21 0
-12 -85 37 -113 66 -16 16 -32 26 -35 23 -3 -3 0 -11 6 -17 25 -25 10 -28 -19
-4 -17 14 -35 26 -40 26 -15 0 -10 30 6 36 8 4 12 11 9 16 -4 6 2 8 12 6 10
-2 24 -15 31 -29 14 -28 81 -85 90 -76 2 3 2 15 -2 28 -5 13 -10 17 -14 10 -5
-7 -22 5 -48 32 -38 38 -41 44 -27 61 8 11 14 14 14 8 0 -7 5 -12 11 -12 6 0
9 9 6 20 -3 11 -1 18 4 14 5 -3 9 2 9 10 0 9 3 16 6 16 4 0 4 -9 1 -20z m-109
-141 c12 -19 11 -20 -7 -14 -33 10 -26 -23 6 -36 16 -6 36 -18 45 -26 21 -19
25 -49 6 -36 -7 4 -23 8 -35 8 -24 1 -25 1 36 -61 48 -49 0 -22 -53 30 -54 52
-87 106 -66 106 6 0 15 -11 20 -24 10 -26 28 -42 37 -32 4 3 -2 14 -11 25 -10
11 -20 33 -22 50 -4 25 -2 31 13 31 10 0 24 -9 31 -21z m70 -35 c11 4 27 -2
40 -14 11 -11 25 -20 30 -20 5 0 16 -7 23 -16 12 -15 11 -16 -11 -9 -23 7 -24
7 -10 -11 14 -18 14 -18 -5 -4 -11 8 -26 21 -33 28 -14 12 -32 16 -32 6 0 -3
15 -18 32 -35 18 -16 27 -29 21 -29 -12 0 -73 68 -98 110 -8 13 -6 13 8 2 9
-8 24 -11 35 -8z m-138 -51 c0 -4 27 -34 60 -67 62 -60 73 -87 20 -47 -40 29
-38 18 3 -19 17 -16 27 -30 20 -30 -6 0 -18 6 -26 14 -17 18 -88 48 -95 41 -8
-8 39 -45 58 -45 9 0 25 -9 35 -20 20 -22 7 -27 -26 -10 -30 16 -23 -3 9 -22
l27 -17 -30 -1 c-27 -1 -28 -2 -12 -14 15 -12 15 -15 3 -25 -8 -7 -12 -19 -9
-28 5 -12 1 -14 -18 -7 -13 4 -31 8 -39 9 -26 4 -50 17 -50 28 0 13 -30 47
-42 47 -5 0 0 -14 12 -30 l22 -31 -31 6 c-38 6 -38 3 -5 -35 26 -29 90 -58
101 -46 4 3 0 6 -8 6 -8 0 -26 11 -40 23 -13 13 -31 27 -39 31 -8 3 -1 3 15 0
17 -4 43 -8 60 -10 16 -2 34 -9 40 -15 7 -8 3 -10 -17 -7 -37 7 -35 1 5 -16
20 -9 26 -15 14 -15 -10 -1 -16 -5 -12 -10 3 -5 1 -12 -5 -16 -6 -4 -7 -11 -4
-17 9 -13 -98 -3 -153 16 -25 8 -39 36 -18 36 19 0 19 8 -2 28 -16 16 -15 17
1 20 10 2 15 10 12 18 -3 7 -1 16 4 19 6 4 10 15 10 26 0 10 5 19 11 19 6 0 8
9 4 21 -5 16 -3 20 12 17 10 -2 26 -12 35 -23 10 -11 17 -15 18 -10 0 17 -31
56 -40 50 -5 -3 -14 4 -20 15 -12 23 -7 25 21 9 18 -9 19 -8 13 18 -7 27 -6
27 12 12 38 -32 56 -30 24 2 -17 17 -28 34 -24 38 3 3 13 -4 21 -16 17 -26 46
-32 36 -8 -4 12 3 11 31 -6 20 -11 36 -18 36 -15 0 12 -55 55 -71 56 -19 0
-59 29 -41 30 6 0 12 7 12 15 0 8 7 15 15 15 8 0 15 7 15 16 0 14 2 14 15 0 8
-8 15 -18 15 -23z m130 -37 c0 4 9 -1 20 -11 11 -10 20 -22 20 -26 0 -13 -68
22 -74 38 -4 11 -1 11 14 3 11 -6 20 -8 20 -4z m-345 -145 c3 -5 1 -12 -5 -16
-5 -3 -10 1 -10 9 0 18 6 21 15 7z m10 -511 c-3 -4 4 -15 15 -25 11 -10 20
-23 20 -29 0 -6 12 -28 26 -49 16 -24 23 -45 19 -57 -4 -12 -2 -20 4 -20 7 0
7 -7 -1 -20 -11 -17 -10 -22 1 -29 10 -7 10 -10 1 -16 -9 -6 -9 -10 1 -16 11
-7 11 -9 -2 -9 -12 0 -15 -10 -13 -47 1 -27 3 -48 4 -48 9 0 6 -41 -3 -47 -9
-6 -9 -12 1 -28 10 -16 10 -25 2 -35 -7 -8 -8 -20 -3 -27 12 -19 12 -82 -1
-90 -6 -4 -1 -11 14 -17 17 -7 20 -10 8 -10 -11 -1 -15 -6 -12 -15 3 -8 1 -17
-5 -21 -16 -10 -13 -28 4 -22 8 4 17 2 20 -3 4 -6 -1 -10 -9 -10 -19 0 -29
-17 -19 -32 4 -7 8 -17 8 -23 1 -5 7 -9 14 -7 7 1 10 -2 6 -8 -3 -5 -13 -10
-22 -10 -13 0 -13 -3 -3 -15 9 -11 9 -15 1 -15 -7 0 -9 -5 -5 -11 3 -6 0 -15
-7 -20 -10 -6 -8 -10 11 -18 14 -5 20 -10 13 -10 -13 -1 -12 -19 1 -40 6 -10
5 -12 -2 -7 -21 13 -34 -5 -15 -20 12 -9 14 -13 4 -14 -8 0 -11 -6 -6 -17 4
-10 9 -28 11 -41 4 -20 2 -23 -17 -17 -21 7 -20 5 4 -19 15 -15 27 -32 27 -39
0 -7 -4 -6 -10 3 -7 12 -10 12 -16 -4 -5 -12 -2 -23 9 -31 21 -15 21 -20 2
-38 -12 -13 -12 -18 5 -38 11 -12 18 -25 15 -28 -4 -3 -10 1 -15 9 -11 19 -24
6 -16 -16 3 -9 13 -14 21 -11 9 4 12 1 8 -9 -3 -7 -9 -14 -15 -14 -5 0 -6 -4
-3 -10 3 -5 1 -10 -4 -10 -6 0 -11 5 -11 10 0 6 -4 10 -8 10 -5 0 -9 -7 -9
-15 0 -8 5 -15 11 -15 6 0 16 -11 23 -25 7 -16 8 -25 1 -25 -7 0 -6 -5 1 -13
6 -8 8 -16 5 -19 -11 -11 -13 -68 -2 -68 7 0 6 -5 -2 -15 -10 -12 -10 -18 0
-30 10 -12 10 -15 -4 -15 -22 0 -21 -40 2 -40 15 -1 15 -2 -2 -15 -11 -8 -15
-15 -9 -15 16 0 21 -30 11 -58 -5 -14 -4 -31 2 -42 7 -13 6 -27 -2 -45 -10
-22 -9 -28 3 -36 11 -7 11 -9 -3 -9 -20 0 -24 -15 -7 -26 6 -3 8 -17 5 -30 -4
-14 -2 -24 4 -24 12 0 9 -22 -5 -33 -6 -6 -6 -10 3 -14 6 -2 12 -9 12 -14 0
-6 -5 -7 -11 -3 -8 4 -8 0 0 -15 8 -14 8 -21 1 -21 -7 0 -8 -6 -1 -19 8 -14 7
-20 -4 -25 -18 -7 -20 -26 -2 -26 7 0 18 -9 24 -19 11 -17 9 -21 -7 -26 -11
-4 -18 -11 -15 -16 4 -5 1 -9 -6 -9 -8 0 -8 -4 2 -16 10 -12 10 -17 0 -23 -9
-6 -8 -11 4 -21 12 -10 13 -16 4 -26 -8 -10 -8 -14 0 -14 6 0 11 -5 11 -10 0
-6 -3 -9 -7 -9 -20 3 -27 -2 -13 -11 11 -7 12 -12 3 -21 -7 -7 -9 -18 -4 -28
5 -9 8 -52 7 -96 -1 -70 1 -82 19 -93 15 -10 16 -12 3 -8 -14 4 -18 0 -18 -17
0 -13 5 -28 12 -35 8 -8 5 -14 -16 -22 -15 -5 -34 -10 -42 -10 -17 0 -19 20
-1 21 9 0 9 2 0 6 -8 3 -11 14 -7 29 5 21 3 24 -19 24 -33 0 -46 20 -18 27 20
5 20 5 -2 24 -21 17 -21 18 -3 19 20 0 20 0 0 15 -13 10 -14 14 -5 15 11 0 11
3 1 15 -10 12 -10 15 3 15 21 0 30 29 12 36 -20 8 -19 33 1 41 14 5 12 8 -7
19 -18 10 -20 13 -7 14 14 0 15 4 5 30 -10 25 -9 33 3 40 12 8 12 10 -3 16
-14 5 -15 9 -5 21 9 11 9 19 0 34 -10 16 -9 19 4 19 16 0 16 1 1 18 -19 21
-23 42 -5 24 19 -19 33 -14 16 6 -21 23 -20 82 1 82 12 0 9 6 -9 20 l-25 21
30 -7 30 -7 -27 26 c-35 32 -36 45 -3 23 28 -18 33 -13 10 11 -17 16 -10 38 8
26 6 -3 2 7 -9 23 -35 50 -36 52 -12 48 13 -2 17 -2 10 2 -7 3 -17 15 -24 27
-11 21 -10 21 9 4 28 -25 38 -21 19 8 -19 29 -20 39 -4 29 7 -5 8 -3 4 5 -5 7
-13 10 -20 8 -7 -3 -13 4 -13 14 -1 12 5 19 15 19 12 0 13 3 4 12 -14 14 -16
42 -2 33 6 -3 10 -2 10 4 0 5 -4 13 -10 16 -16 10 -12 25 7 25 15 0 15 1 -1
19 -15 16 -15 19 -1 24 8 4 15 2 15 -3 0 -6 5 -10 12 -10 6 0 2 10 -9 23 -32
35 -35 46 -19 62 13 13 13 19 1 41 -7 14 -12 40 -9 57 2 17 -2 38 -8 46 -10
13 -10 14 2 4 21 -19 32 -15 20 7 -8 14 -8 20 0 20 6 0 8 4 5 10 -3 5 -8 22
-10 37 -2 16 -7 43 -9 61 -3 17 -1 32 4 32 12 0 13 33 3 44 -11 11 -10 40 2
48 6 5 4 8 -5 8 -13 0 -13 2 -1 9 11 7 12 13 4 23 -15 19 -12 47 5 41 11 -5
11 0 -2 26 -16 29 -14 35 9 32 6 -1 2 5 -7 12 -23 18 -23 31 -2 23 15 -6 15
-4 0 18 -20 32 -20 40 1 32 15 -6 15 -4 -2 14 -16 18 -16 20 -1 20 15 0 15 2
2 23 -13 18 -13 30 -4 60 10 31 9 40 -5 55 -21 23 -22 36 -2 28 22 -8 20 33
-2 50 -17 13 -17 14 0 8 18 -6 24 10 7 21 -6 3 -10 13 -10 21 0 8 5 12 10 9 6
-3 10 1 10 9 0 8 -4 17 -9 20 -4 3 -6 16 -4 30 3 13 0 33 -6 44 -8 15 -7 23 3
31 15 13 12 68 -5 86 -14 14 -11 28 6 22 23 -9 29 13 9 29 -13 11 -15 17 -7
20 9 4 9 12 -3 30 -16 23 -15 24 7 24 l22 0 -24 26 c-17 18 -19 23 -6 18 12
-4 17 -1 17 10 0 9 -4 16 -10 16 -5 0 -10 8 -10 18 0 10 -6 24 -12 30 -10 10
-10 15 1 21 7 5 10 15 7 22 -4 8 -1 5 8 -5 8 -10 13 -22 11 -26z m189 -224
c29 -24 70 -54 91 -67 93 -53 211 -112 264 -130 31 -12 74 -29 96 -38 22 -10
60 -23 85 -30 25 -8 74 -23 110 -34 36 -12 70 -22 75 -23 15 -4 219 -77 330
-119 230 -86 403 -197 545 -349 30 -33 62 -67 71 -76 9 -10 39 -48 67 -86 28
-38 59 -80 70 -94 26 -35 105 -166 148 -247 20 -37 39 -72 44 -78 4 -5 22 -46
40 -90 17 -44 40 -98 50 -120 10 -22 18 -49 18 -60 1 -11 15 -69 32 -130 17
-60 41 -177 52 -260 11 -82 23 -170 27 -195 3 -25 5 -66 3 -92 l-3 -48 -535 0
c-349 0 -534 -3 -534 -10 0 -5 -5 -10 -11 -10 -5 0 -7 5 -4 10 4 6 -27 10 -84
10 -83 0 -108 -8 -81 -25 6 -3 10 -18 10 -32 0 -32 11 -24 14 11 2 14 -1 26
-7 26 -6 0 -7 3 -3 7 4 5 14 -1 21 -11 18 -24 55 -26 77 -4 10 10 24 18 30 17
10 0 10 -2 1 -6 -7 -2 -13 -12 -13 -21 0 -15 2 -15 11 -2 8 12 12 12 16 2 4
-9 8 -10 18 -2 9 8 15 8 20 0 7 -11 25 -4 25 10 0 5 -8 7 -17 3 -11 -4 -15 -2
-10 3 5 5 29 9 54 10 31 1 40 -2 29 -8 -9 -5 -20 -7 -25 -3 -5 3 -13 0 -17 -6
-5 -9 2 -10 26 -5 19 3 36 10 40 14 3 4 14 8 25 10 20 4 20 4 0 -11 -11 -9
-16 -19 -11 -24 5 -4 11 -2 13 5 3 6 11 12 19 12 9 0 12 -4 9 -10 -3 -5 -1
-10 5 -10 6 0 13 7 16 15 4 8 11 15 16 15 6 0 8 -7 4 -15 -7 -19 8 -19 24 0 7
8 17 15 22 15 6 0 5 -7 -2 -15 -8 -9 -9 -15 -2 -15 6 0 14 5 17 10 5 8 11 7
21 -1 9 -7 14 -8 14 -1 0 5 9 8 20 5 12 -3 22 1 26 11 3 9 10 14 15 11 4 -3 6
-12 2 -20 -3 -8 -1 -15 5 -15 5 0 12 7 16 15 3 8 13 15 23 15 15 0 16 -2 3
-10 -8 -5 -11 -12 -8 -16 4 -3 20 3 36 15 17 12 34 21 38 21 4 0 -1 -6 -12
-14 -10 -8 -15 -18 -11 -22 4 -4 14 2 23 14 15 22 44 30 44 12 0 -5 8 -7 18
-3 14 5 13 3 -3 -10 -14 -12 -16 -16 -6 -17 8 0 23 7 33 17 13 12 18 13 18 3
0 -9 6 -8 19 4 11 10 28 16 38 13 15 -4 15 -5 -3 -6 -25 -1 -42 -31 -19 -31 8
0 15 6 16 13 0 9 2 9 6 0 7 -19 21 -16 28 6 5 16 15 18 75 17 39 0 70 -4 70
-8 0 -4 -14 -6 -32 -5 -18 1 -32 -3 -34 -11 -1 -7 -1 -9 2 -4 2 4 22 6 43 4
32 -3 40 0 44 15 3 16 5 15 13 -5 l10 -23 18 20 c11 12 23 21 28 21 5 0 2 -7
-7 -16 -23 -23 -9 -31 15 -9 18 17 20 17 14 2 -9 -25 11 -21 30 5 l17 23 -7
-25 -6 -25 21 23 c26 26 33 28 24 5 -5 -14 -1 -15 33 -10 21 4 47 7 57 7 9 0
17 4 17 9 0 4 -12 6 -27 4 -24 -4 -26 -3 -10 7 10 7 31 9 48 5 28 -6 29 -8 12
-21 -21 -16 -10 -18 18 -3 20 10 20 10 4 -23 l-17 -33 30 35 c30 35 58 37 31
3 -7 -10 0 -7 15 7 22 19 28 21 23 8 -5 -13 -1 -18 13 -18 10 0 22 5 25 11 4
6 14 8 22 5 9 -4 22 -1 29 5 7 6 30 12 49 14 32 3 35 2 23 -12 -12 -15 -11
-15 9 -5 29 16 33 15 27 -6 -4 -13 -1 -12 14 6 11 12 28 22 39 22 17 -1 17 -1
1 -14 -10 -7 -18 -16 -18 -19 0 -7 22 -3 39 7 8 5 16 4 21 -4 6 -9 9 -9 15 0
6 9 9 9 15 -1 7 -10 11 -10 24 0 11 9 16 10 16 2 0 -6 10 -9 23 -7 12 3 28 5
36 5 8 1 11 8 7 18 -4 12 1 9 12 -6 14 -17 21 -20 27 -11 6 9 9 9 16 -1 8 -12
10 -12 18 0 5 7 14 11 20 7 6 -4 19 -2 30 3 17 9 18 8 14 -12 -5 -18 -3 -20 8
-10 7 7 23 13 36 13 14 0 23 6 23 16 0 8 5 12 10 9 6 -4 8 -10 5 -15 -7 -12
48 -20 62 -9 7 6 12 6 15 -1 2 -8 11 -8 30 -1 18 7 29 7 33 1 4 -6 14 -6 27 1
18 10 19 8 13 -13 -6 -19 -2 -18 24 12 16 19 33 31 37 27 4 -4 2 -7 -4 -7 -7
0 -12 -8 -12 -17 0 -13 3 -14 11 -6 8 8 20 8 35 3 15 -6 26 -5 30 1 4 8 9 7
15 -2 8 -12 10 -12 18 0 5 8 16 11 30 6 22 -7 30 10 9 18 -7 3 1 6 17 6 22 1
26 -2 15 -9 -8 -5 -11 -12 -7 -16 4 -4 13 -2 19 4 17 17 28 15 22 -3 -4 -8 -1
-15 5 -15 6 0 11 4 11 9 0 5 7 11 14 14 10 4 13 1 9 -9 -3 -7 0 -14 6 -14 6 0
11 5 11 12 0 9 3 9 12 0 9 -9 15 -9 26 1 12 9 16 9 19 -1 3 -6 9 -9 15 -6 6 4
5 10 -3 15 -10 6 -10 9 -2 9 6 0 15 -4 18 -10 4 -6 19 -4 42 5 20 8 38 13 41
10 3 -3 0 -5 -6 -5 -7 0 -12 -7 -12 -17 0 -14 3 -14 22 3 19 17 21 17 15 2 -9
-26 8 -22 21 5 l11 22 0 -22 c1 -21 21 -34 21 -14 0 5 11 8 25 6 14 -1 25 2
25 6 0 5 5 9 10 9 6 0 10 -7 10 -16 0 -12 4 -14 13 -7 6 5 25 8 40 7 24 -2 27
-1 17 12 -7 7 -9 14 -5 14 4 0 13 -8 20 -17 12 -16 14 -16 29 0 22 21 27 22
19 0 -4 -11 -3 -14 5 -9 7 4 12 3 12 -2 0 -16 108 -5 126 12 20 20 30 21 14 1
-15 -18 0 -20 19 -3 11 11 13 10 8 -4 -5 -13 0 -16 21 -13 15 2 30 4 35 4 4 1
7 8 7 16 0 8 3 15 6 15 12 0 34 -30 34 -47 0 -15 2 -16 10 -3 12 19 20 10 30
-36 11 -47 4 -60 -20 -39 -14 13 -19 13 -23 3 -3 -8 -9 -4 -15 12 -10 24 -11
24 -11 3 -1 -27 -16 -30 -25 -6 -6 15 -8 15 -17 3 -8 -11 -12 -12 -16 -2 -7
17 -24 15 -17 -3 4 -9 0 -15 -10 -15 -9 0 -16 5 -16 12 0 6 -7 3 -15 -8 -8
-10 -15 -14 -15 -8 0 14 -50 13 -50 0 0 -6 -7 -1 -15 10 -9 12 -14 14 -15 5 0
-7 -6 -11 -15 -7 -8 3 -15 0 -15 -7 0 -7 -7 -3 -15 7 -8 11 -15 15 -15 8 0
-15 -70 -13 -70 2 0 6 -7 3 -14 -6 -7 -10 -16 -15 -20 -11 -10 11 -76 10 -76
-1 0 -6 -5 -5 -12 2 -8 8 -15 9 -25 1 -10 -9 -13 -8 -13 1 0 8 -3 10 -7 7 -3
-4 -12 -2 -20 4 -10 9 -13 8 -13 -1 0 -8 -4 -9 -12 -3 -13 9 -21 9 -83 2 -17
-2 -36 0 -43 5 -8 5 -18 4 -25 -3 -7 -7 -14 -7 -24 0 -10 9 -13 8 -13 -2 -1
-9 -5 -8 -15 5 -13 17 -15 18 -15 3 0 -9 -4 -17 -10 -17 -5 0 -10 6 -10 13 0
7 -3 8 -8 2 -12 -17 -32 -16 -32 3 0 14 -2 15 -10 2 -10 -16 -58 -22 -66 -8
-3 5 -12 4 -20 -3 -10 -8 -14 -8 -14 0 0 18 -20 12 -21 -6 -1 -17 -2 -17 -6 0
-5 19 -23 24 -23 6 0 -6 -6 -9 -14 -6 -7 3 -19 0 -25 -6 -8 -8 -11 -8 -11 1 0
6 -7 9 -15 6 -8 -4 -15 -2 -15 4 0 12 -32 10 -43 -3 -6 -6 -10 -5 -14 4 -5 11
-7 11 -14 0 -6 -9 -12 -10 -16 -4 -9 12 -33 13 -50 2 -8 -5 -13 -4 -13 2 0 6
-4 11 -10 11 -5 0 -10 -8 -10 -17 0 -15 -2 -14 -15 3 -11 14 -15 16 -15 4 0
-12 -4 -10 -15 4 -13 17 -15 18 -15 3 0 -9 -4 -17 -10 -17 -5 0 -10 5 -10 10
0 17 -18 11 -23 -7 -3 -13 -5 -11 -6 6 -1 24 -1 24 -22 5 -16 -14 -22 -15 -28
-5 -5 7 -11 9 -14 4 -7 -11 -36 -11 -54 0 -6 4 -14 3 -18 -2 -3 -6 -15 -7 -29
-1 -15 5 -27 5 -35 -3 -8 -8 -11 -8 -11 2 0 11 -3 11 -15 1 -12 -10 -15 -10
-15 1 -1 9 -5 8 -15 -5 -9 -12 -15 -15 -15 -7 0 10 -10 11 -36 6 -26 -4 -39
-2 -45 7 -7 10 -9 10 -9 1 0 -7 -4 -13 -10 -13 -5 0 -10 16 -10 35 0 53 -20
42 -21 -12 -1 -27 -3 -41 -6 -32 -2 10 -11 15 -21 12 -9 -2 -27 5 -39 16 -26
25 -33 26 -33 6 0 -24 -20 -17 -21 8 l-1 22 -6 -23 c-8 -28 -24 -30 -33 -5 -7
17 -8 17 -8 0 -1 -14 -6 -17 -21 -12 -10 3 -28 2 -38 -4 -13 -7 -22 -7 -30 1
-9 9 -12 8 -12 -3 -1 -11 -4 -10 -14 4 -13 16 -15 16 -30 2 -10 -10 -16 -12
-16 -4 0 8 -4 8 -16 -2 -10 -8 -18 -9 -22 -2 -7 11 -47 11 -58 0 -4 -3 -12 -3
-18 0 -19 13 -46 13 -46 2 0 -8 -4 -8 -14 0 -11 9 -15 9 -20 -1 -5 -10 -7 -10
-12 1 -5 11 -8 11 -15 0 -8 -12 -10 -12 -18 -1 -9 15 -20 15 -38 0 -9 -7 -13
-7 -13 0 0 7 -10 8 -30 2 -16 -5 -32 -5 -35 0 -3 4 -21 4 -41 0 -20 -5 -47 -4
-60 1 -13 4 -24 5 -24 0 0 -9 -37 -8 -46 2 -4 4 -13 2 -21 -4 -10 -9 -13 -8
-13 1 0 9 -4 9 -13 2 -13 -12 -35 -11 -54 1 -6 4 -14 1 -16 -5 -4 -10 -8 -9
-16 2 -8 12 -13 12 -22 3 -9 -9 -16 -10 -26 -2 -9 8 -17 8 -26 0 -8 -6 -17 -8
-21 -4 -12 12 -40 12 -48 0 -6 -9 -11 -8 -18 3 -6 10 -10 11 -10 3 0 -20 -20
-15 -21 5 -1 16 -2 16 -6 -1 -5 -20 -14 -22 -31 -5 -9 9 -12 9 -12 -1 0 -11
-3 -11 -15 -1 -12 10 -16 9 -21 -5 -5 -13 -9 -14 -15 -4 -8 14 -95 21 -114 10
-16 -9 -39 -7 -47 4 -5 6 -12 5 -17 -5 -8 -12 -12 -10 -20 10 -8 22 -10 22
-11 5 0 -15 -2 -17 -9 -7 -6 11 -10 10 -15 -3 -5 -14 -9 -15 -20 -6 -11 9 -16
9 -21 0 -6 -8 -10 -7 -16 2 -8 12 -11 11 -19 -1 -7 -11 -12 -12 -21 -3 -8 8
-19 9 -35 3 -13 -5 -26 -5 -28 -1 -8 13 -56 10 -56 -3 0 -6 -4 -5 -9 3 -8 12
-12 12 -25 2 -13 -11 -16 -11 -16 1 0 8 -7 15 -15 15 -8 0 -15 -4 -15 -8 0 -5
-13 -7 -30 -5 -16 2 -31 -1 -33 -7 -2 -7 -9 -7 -18 -2 -23 15 -49 16 -49 2 0
-6 -7 -3 -15 7 -9 12 -15 15 -15 7 0 -8 -6 -11 -17 -7 -9 4 -20 1 -25 -6 -6
-10 -8 -10 -8 1 0 11 -3 11 -15 1 -11 -9 -15 -9 -15 -1 0 7 -5 9 -12 5 -18
-11 -48 -12 -48 -2 0 5 -6 6 -13 1 -16 -10 -39 -10 -54 1 -9 5 -13 4 -13 -5 0
-9 -3 -10 -8 -3 -4 6 -16 11 -27 11 -11 0 -23 -5 -27 -11 -5 -7 -8 -7 -8 3 0
7 -6 11 -15 7 -10 -3 -15 1 -15 11 0 14 -2 14 -15 -3 -14 -18 -14 -18 -15 4 0
29 -20 19 -21 -11 -1 -17 -2 -18 -6 -4 -5 20 -23 23 -23 5 0 -7 -5 -5 -11 5
-10 18 -11 18 -25 0 -13 -17 -13 -17 -14 1 0 19 0 19 -22 0 -21 -19 -21 -19
-15 4 5 23 5 23 -14 6 -18 -16 -19 -16 -19 1 0 11 -5 15 -14 12 -20 -8 -28 4
-15 20 14 16 5 17 -22 3 -32 -17 -22 6 13 31 21 16 33 19 36 11 4 -14 22 -16
22 -3 0 18 -33 21 -56 6 -25 -16 -79 -11 -68 6 3 5 -5 9 -18 10 l-23 0 23 11
c33 16 27 28 -10 22 l-33 -6 25 21 c29 23 60 33 60 20 0 -5 9 -9 20 -9 12 0
20 -7 20 -16 0 -11 5 -14 16 -10 12 4 15 2 10 -9 -4 -11 1 -15 19 -15 15 0 25
-6 25 -15 0 -10 6 -12 18 -8 14 5 15 4 6 -8 -14 -18 -14 -51 0 -46 6 2 10 12
10 21 -1 9 2 16 7 16 5 0 6 7 3 15 -5 11 1 15 26 15 19 0 29 -4 25 -11 -4 -6
-13 -8 -21 -5 -8 3 -11 0 -7 -10 6 -17 19 -18 29 -3 3 6 16 8 28 5 11 -3 28
-1 36 5 12 8 10 9 -7 4 -14 -4 -23 -2 -23 4 0 6 13 10 29 9 31 -2 31 -9 -2
-46 -11 -12 -18 -22 -14 -22 11 0 57 47 57 59 0 6 5 11 11 11 6 0 8 -9 4 -20
-4 -11 -2 -20 4 -20 10 0 15 14 12 33 -1 5 3 6 8 2 6 -3 7 -13 4 -23 -7 -16
-5 -16 20 1 32 21 38 21 30 2 -4 -13 1 -15 31 -12 20 3 36 0 36 -6 0 -6 10 -2
22 9 21 19 21 19 16 -3 -4 -13 -2 -23 2 -23 5 0 10 12 12 28 3 23 8 27 38 30
24 2 31 0 21 -7 -8 -5 -20 -7 -28 -4 -7 3 -13 0 -13 -7 0 -6 4 -9 9 -6 5 4 12
0 14 -6 4 -10 8 -9 17 2 8 11 13 12 16 3 7 -16 34 -5 34 13 0 8 7 14 16 14 13
0 14 -3 5 -14 -7 -8 -8 -17 -3 -20 6 -3 15 1 22 9 7 8 18 15 24 15 7 0 7 -3 1
-8 -5 -4 -11 -14 -13 -22 -1 -8 9 -1 23 15 l25 30 -314 5 c-314 5 -314 5 -340
29 -59 56 -56 -17 -56 1235 0 630 3 1146 7 1146 3 0 29 -20 57 -44z m2366
-257 c0 -18 -18 -9 -23 12 -4 16 -3 18 9 8 8 -6 14 -15 14 -20z m5 -47 c-7 -8
-35 7 -35 18 0 6 7 6 20 -2 10 -7 17 -14 15 -16z m10 -92 c3 -5 -1 -10 -9 -10
-8 0 -18 5 -21 10 -3 6 1 10 9 10 8 0 18 -4 21 -10z m-37 -285 c-3 -3 -9 2
-12 12 -6 14 -5 15 5 6 7 -7 10 -15 7 -18z m37 -177 c5 -5 2 -8 -6 -8 -20 0
-59 33 -59 50 0 9 10 4 28 -11 15 -13 31 -27 37 -31z m-2580 -138 c3 -5 1 -10
-4 -10 -6 0 -11 5 -11 10 0 6 2 10 4 10 3 0 8 -4 11 -10z m2585 -221 c0 -9
-42 -5 -58 5 -25 15 -10 24 23 13 19 -6 35 -14 35 -18z m-36 -73 c18 -8 36
-23 39 -35 4 -16 2 -20 -6 -13 -7 5 -30 21 -51 36 -42 28 -34 34 18 12z m36
-78 c0 -9 -27 1 -57 22 -38 25 -26 30 17 7 22 -12 40 -25 40 -29z m-90 -158
c0 -5 -13 -10 -29 -10 -16 0 -40 -4 -53 -9 -13 -4 -32 -5 -43 -1 -16 6 -12 9
20 15 22 3 45 8 50 10 22 7 55 4 55 -5z m-64 -63 c4 -4 -7 -7 -24 -7 -17 0
-33 4 -36 9 -7 10 50 8 60 -2z m1 -153 c-3 -3 -12 -4 -19 -1 -8 3 -5 6 6 6 11
1 17 -2 13 -5z m43 -119 c27 -15 20 -19 -17 -9 -13 4 -23 10 -23 15 0 12 11
11 40 -6z m25 -95 c3 -5 -3 -10 -14 -10 -11 0 -23 5 -26 10 -3 6 3 10 14 10
11 0 23 -4 26 -10z m24 -56 c3 -3 -9 -4 -28 -2 -19 2 -36 8 -38 15 -3 9 4 10
28 3 17 -5 34 -12 38 -16z m218 12 c3 -3 -2 -6 -12 -6 -17 0 -17 -1 -1 -19 16
-17 16 -19 -6 -26 l-23 -8 23 -4 c25 -5 28 -13 10 -31 -9 -9 -9 -12 0 -12 7 0
12 -5 12 -11 0 -5 -3 -8 -7 -6 -5 3 -17 1 -28 -4 -19 -7 -19 -8 2 -8 25 -1 39
-17 21 -24 -10 -4 -11 -7 0 -18 14 -16 16 -33 2 -24 -14 9 -12 -19 2 -33 9 -9
8 -12 -5 -12 -15 0 -14 -3 5 -22 20 -20 20 -22 4 -34 -16 -12 -16 -13 0 -22
14 -8 16 -13 6 -24 -13 -17 -98 -16 -115 1 -6 6 -22 11 -36 12 -36 1 -103 27
-76 29 26 3 27 3 48 -5 35 -14 16 14 -28 39 -25 15 -45 31 -45 37 0 5 11 2 24
-6 26 -17 70 -18 131 -2 69 18 58 23 -32 15 -57 -6 -90 -5 -97 2 -7 7 -2 10
16 10 15 0 29 4 32 8 3 5 19 7 36 4 16 -2 30 0 30 6 0 12 -29 24 -41 16 -17
-10 -119 -12 -119 -2 0 5 5 6 10 3 6 -4 16 -2 23 3 7 5 40 13 74 17 35 4 60
11 57 16 -7 12 -54 12 -54 0 0 -10 -98 -7 -108 4 -4 4 4 4 17 0 14 -4 21 -3
18 3 -4 5 16 12 46 16 66 10 76 11 110 21 31 8 36 25 7 25 -11 0 -20 -4 -20
-9 0 -4 -21 -3 -46 2 l-46 11 73 21 c51 15 67 24 54 28 -9 4 -24 2 -31 -4 -7
-6 -17 -8 -22 -5 -6 3 -25 0 -43 -8 -48 -20 -129 -24 -129 -7 0 5 10 9 23 10
52 2 106 14 101 22 -3 6 11 7 35 3 34 -5 40 -4 36 8 -5 12 2 15 35 13 22 -1
43 -5 47 -9z m-188 -82 c41 -9 40 -26 -2 -23 -18 2 -37 0 -43 -4 -6 -3 -20 0
-30 8 -18 13 -18 14 4 8 13 -3 22 -1 22 6 0 13 6 13 49 5z m11 -284 c12 -8 11
-10 -7 -10 -12 0 -25 5 -28 10 -8 13 15 13 35 0z m-1950 -20 c-34 -11 -70 -12
-70 -2 0 4 21 8 48 9 36 1 41 -1 22 -7z m620 0 c0 -5 -2 -10 -4 -10 -3 0 -8 5
-11 10 -3 6 -1 10 4 10 6 0 11 -4 11 -10z m1900 6 c0 -3 -4 -8 -10 -11 -5 -3
-10 -1 -10 4 0 6 5 11 10 11 6 0 10 -2 10 -4z m163 -3 c-7 -2 -21 -2 -30 0
-10 3 -4 5 12 5 17 0 24 -2 18 -5z m47 -3 c0 -5 -2 -10 -4 -10 -3 0 -8 5 -11
10 -3 6 -1 10 4 10 6 0 11 -4 11 -10z m200 6 c0 -3 -4 -8 -10 -11 -5 -3 -10
-1 -10 4 0 6 5 11 10 11 6 0 10 -2 10 -4z m232 -8 c-9 -9 -15 -9 -24 0 -9 9
-7 12 12 12 19 0 21 -3 12 -12z m448 8 c0 -3 -4 -8 -10 -11 -5 -3 -10 -1 -10
4 0 6 5 11 10 11 6 0 10 -2 10 -4z m40 -6 c8 -5 11 -10 5 -10 -5 0 -17 5 -25
10 -8 5 -10 10 -5 10 6 0 17 -5 25 -10z m147 4 c-3 -3 -12 -4 -19 -1 -8 3 -5
6 6 6 11 1 17 -2 13 -5z"/>
<path d="M215 4800 c3 -5 8 -10 11 -10 2 0 4 5 4 10 0 6 -5 10 -11 10 -5 0 -7
-4 -4 -10z"/>
<path d="M1188 4155 c-6 -7 11 -69 37 -129 9 -21 19 -36 22 -33 4 5 -13 63
-37 122 -5 11 -10 26 -12 33 -2 7 -6 10 -10 7z"/>
<path d="M1065 4094 c7 -19 12 -44 14 -73 1 -11 5 -10 15 4 13 18 15 17 26
-24 8 -30 15 -40 22 -33 20 20 -30 120 -53 106 -5 -3 -9 2 -9 10 0 8 -5 18
-12 22 -8 5 -9 2 -3 -12z"/>
<path d="M1121 4094 c0 -11 3 -14 6 -6 3 7 2 16 -1 19 -3 4 -6 -2 -5 -13z"/>
<path d="M1030 4050 c0 -6 9 -28 20 -49 10 -21 16 -42 12 -46 -4 -5 1 -5 11
-2 9 4 17 2 17 -3 0 -6 5 -10 10 -10 6 0 10 11 10 25 0 16 -4 23 -13 19 -9 -3
-20 10 -32 36 -17 38 -35 53 -35 30z"/>
<path d="M998 4044 c-8 -7 21 -71 49 -109 17 -23 22 -26 23 -12 0 9 -4 17 -9
17 -5 0 -12 12 -15 28 -8 33 -40 85 -48 76z"/>
<path d="M890 3977 c0 -10 41 -81 46 -79 3 2 13 -7 24 -20 l18 -23 -5 28 c-3
16 -1 27 6 27 13 0 14 29 2 49 -14 22 -33 4 -20 -20 10 -19 9 -19 -10 -10 -11
7 -25 20 -31 31 -9 16 -30 28 -30 17z"/>
<path d="M2780 3504 c0 -10 5 -26 10 -34 8 -11 9 -7 4 15 -8 37 -14 45 -14 19z"/>
<path d="M2791 3410 c-6 -66 -6 -112 1 -116 13 -8 16 12 8 76 -4 36 -8 54 -9
40z"/>
<path d="M2794 3248 c1 -18 -1 -45 -5 -60 -4 -15 -4 -30 1 -33 8 -5 5 -74 -4
-83 -2 -2 0 -17 4 -33 6 -20 5 -29 -3 -29 -8 0 -7 -4 2 -9 8 -5 11 -16 7 -27
-4 -10 -1 -21 6 -25 9 -6 9 -11 -2 -23 -17 -21 -5 -33 15 -16 12 10 14 27 11
74 -3 34 -8 114 -12 179 -3 64 -10 117 -14 117 -4 0 -7 -15 -6 -32z"/>
<path d="M255 3155 c33 -16 85 -20 70 -6 -6 5 -30 12 -55 15 l-45 6 30 -15z"/>
<path d="M290 2940 c-18 -12 -2 -12 25 0 13 6 15 9 5 9 -8 0 -22 -4 -30 -9z"/>
<path d="M350 2860 c-12 -8 -10 -10 8 -10 13 0 20 4 17 10 -7 12 -6 12 -25 0z"/>
<path d="M415 2760 c-3 -5 -2 -10 4 -10 5 0 13 5 16 10 3 6 2 10 -4 10 -5 0
-13 -4 -16 -10z"/>
<path d="M591 2739 c18 -11 39 -11 39 0 0 5 -12 9 -26 9 -18 0 -22 -3 -13 -9z"/>
<path d="M627 2723 c-14 -13 -6 -21 15 -15 17 4 20 2 15 -13 -5 -12 -3 -16 6
-12 8 3 20 -3 28 -14 7 -10 21 -19 31 -19 10 0 18 -4 18 -10 0 -5 16 -12 35
-16 19 -3 32 -10 29 -15 -3 -5 6 -9 20 -9 14 0 26 5 26 10 0 6 -6 10 -12 10
-19 -1 -137 62 -166 88 -26 23 -35 26 -45 15z"/>
<path d="M2740 2636 c0 -2 7 -9 15 -16 13 -11 14 -10 9 4 -5 14 -24 23 -24 12z"/>
<path d="M857 2596 c-6 -16 2 -28 14 -20 12 7 11 34 0 34 -5 0 -11 -6 -14 -14z"/>
<path d="M890 2591 c0 -14 66 -44 82 -38 7 3 0 9 -17 16 -16 6 -38 16 -47 21
-11 6 -18 7 -18 1z"/>
<path d="M996 2541 c-3 -4 0 -8 7 -8 7 0 26 -4 42 -8 38 -10 30 -1 -12 13 -18
6 -35 7 -37 3z"/>
<path d="M1075 2510 c-4 -6 -3 -10 2 -9 10 3 40 -8 76 -27 16 -7 35 -14 42
-14 7 0 15 -5 17 -11 2 -5 11 -7 21 -3 14 5 7 11 -32 25 -28 9 -65 25 -82 33
-38 19 -36 19 -44 6z"/>
<path d="M1290 2430 c0 -5 5 -10 10 -10 6 0 10 5 10 10 0 6 -4 10 -10 10 -5 0
-10 -4 -10 -10z"/>
<path d="M1325 2420 c-3 -5 -1 -10 4 -10 6 0 11 5 11 10 0 6 -2 10 -4 10 -3 0
-8 -4 -11 -10z"/>
<path d="M1360 2410 c0 -5 5 -10 11 -10 5 0 7 5 4 10 -3 6 -8 10 -11 10 -2 0
-4 -4 -4 -10z"/>
<path d="M1386 2393 c-13 -13 -5 -21 16 -15 11 3 19 1 16 -4 -4 -5 4 -9 17 -9
13 0 21 3 19 7 -6 10 -62 27 -68 21z"/>
<path d="M1530 2325 c7 -9 15 -13 17 -11 7 7 -7 26 -19 26 -6 0 -6 -6 2 -15z"/>
<path d="M1565 2310 c-3 -6 1 -10 9 -10 8 0 14 -6 12 -12 -1 -7 -1 -9 2 -5 2
4 10 3 18 -4 8 -7 14 -7 14 -1 0 15 -48 43 -55 32z"/>
<path d="M1631 2283 c-1 -6 6 -19 15 -27 8 -9 12 -21 8 -27 -4 -8 -3 -9 4 -5
17 10 15 46 -2 46 -8 0 -17 6 -19 13 -4 8 -6 9 -6 0z"/>
<path d="M1685 2240 c3 -5 8 -10 11 -10 2 0 4 5 4 10 0 6 -5 10 -11 10 -5 0
-7 -4 -4 -10z"/>
<path d="M1710 2220 c0 -5 5 -10 10 -10 6 0 10 5 10 10 0 6 -4 10 -10 10 -5 0
-10 -4 -10 -10z"/>
<path d="M1770 2190 c0 -5 5 -10 11 -10 5 0 7 5 4 10 -3 6 -8 10 -11 10 -2 0
-4 -4 -4 -10z"/>
<path d="M1800 2175 c0 -13 31 -36 41 -33 7 2 0 12 -15 21 -14 10 -26 15 -26
12z"/>
<path d="M1870 2121 c0 -5 7 -12 16 -15 24 -9 28 -7 14 9 -14 17 -30 20 -30 6z"/>
<path d="M1936 2061 c-3 -5 5 -11 19 -13 28 -6 34 6 9 16 -20 8 -22 8 -28 -3z"/>
<path d="M1985 2030 c-3 -5 3 -10 15 -10 12 0 19 -4 16 -8 -2 -4 9 -14 26 -21
23 -11 27 -16 17 -23 -11 -8 -10 -9 3 -4 11 3 19 -2 23 -15 6 -19 25 -27 25
-10 0 10 -100 101 -112 101 -4 0 -10 -4 -13 -10z"/>
<path d="M2125 1918 c9 -29 11 -30 27 -26 9 2 6 10 -10 26 l-24 23 7 -23z"/>
<path d="M2161 1866 c-9 -11 -8 -14 6 -12 10 0 17 -5 15 -12 -1 -8 2 -11 9 -6
6 3 15 0 20 -7 4 -7 11 -10 15 -6 4 4 -5 18 -20 32 -32 29 -30 29 -45 11z"/>
<path d="M2220 1810 c-13 -8 -12 -10 3 -10 20 0 23 -16 5 -24 -7 -3 -1 -3 15
1 22 4 26 2 21 -11 -3 -9 -1 -16 6 -16 6 0 8 -4 5 -10 -3 -5 1 -10 10 -10 11
0 15 -5 11 -15 -3 -10 1 -15 14 -15 23 0 35 -16 18 -23 -8 -3 -6 -6 5 -6 9 -1
17 -6 17 -12 0 -5 5 -7 10 -4 17 11 11 22 -35 69 -25 26 -45 49 -45 51 0 5
-38 45 -42 45 -2 0 -10 -5 -18 -10z"/>
<path d="M2756 1681 c-4 -5 3 -7 14 -4 11 3 27 0 35 -7 13 -11 14 -10 9 4 -7
17 -49 22 -58 7z"/>
<path d="M2720 1196 c-59 -16 -37 -28 34 -20 46 6 54 9 45 20 -13 16 -19 16
-79 0z"/>
<path d="M2760 778 c-25 -5 -55 -7 -68 -5 -14 3 -21 0 -19 -7 8 -22 177 -8
177 14 0 11 -21 10 -90 -2z"/>
<path d="M2845 730 c3 -5 10 -10 16 -10 5 0 9 5 9 10 0 6 -7 10 -16 10 -8 0
-12 -4 -9 -10z"/>
<path d="M410 3530 c13 -11 26 -17 29 -14 7 6 -28 34 -42 34 -6 0 0 -9 13 -20z"/>
<path d="M333 3443 c-7 -3 -13 -8 -13 -12 0 -14 48 -61 62 -61 7 0 0 11 -15
25 -33 31 -35 42 -5 21 28 -20 45 -20 45 -1 0 8 -4 12 -9 9 -5 -3 -19 1 -31 9
-12 7 -28 12 -34 10z"/>
<path d="M320 3361 c0 -17 24 -26 70 -27 37 -1 41 0 21 8 -14 5 -30 7 -37 4
-7 -3 -18 2 -24 10 -14 16 -30 19 -30 5z"/>
<path d="M265 3250 c3 -5 -1 -10 -10 -10 -9 0 -13 -5 -10 -10 4 -6 15 -8 25
-5 11 3 28 1 40 -5 28 -15 26 5 -2 24 -25 18 -53 21 -43 6z"/>
<path d="M228 2733 c7 -3 16 -2 19 1 4 3 -2 6 -13 5 -11 0 -14 -3 -6 -6z"/>
<path d="M215 1700 c3 -5 8 -10 11 -10 2 0 4 5 4 10 0 6 -5 10 -11 10 -5 0 -7
-4 -4 -10z"/>
<path d="M265 870 c3 -5 8 -10 11 -10 2 0 4 5 4 10 0 6 -5 10 -11 10 -5 0 -7
-4 -4 -10z"/>
<path d="M290 320 c0 -5 4 -10 9 -10 6 0 13 5 16 10 3 6 -1 10 -9 10 -9 0 -16
-4 -16 -10z"/>
<path d="M1033 298 c1 -7 -4 -12 -10 -10 -7 1 -13 -5 -13 -13 0 -19 49 -10 66
11 11 13 56 16 48 2 -3 -4 -11 -5 -18 -2 -8 3 -16 -4 -19 -16 -5 -20 -4 -20
39 4 l45 25 -6 -22 -6 -22 20 23 c11 12 22 18 25 13 4 -5 2 -12 -4 -16 -5 -3
-10 -14 -10 -23 0 -12 4 -10 17 8 10 14 17 27 16 30 -4 14 47 8 55 -6 10 -18
42 -9 42 12 0 11 -28 14 -145 14 -111 0 -144 -3 -142 -12z m37 -2 c0 -3 -4 -8
-10 -11 -5 -3 -10 -1 -10 4 0 6 5 11 10 11 6 0 10 -2 10 -4z"/>
<path d="M1245 280 c-3 -5 1 -10 9 -10 9 0 16 5 16 10 0 6 -4 10 -9 10 -6 0
-13 -4 -16 -10z"/>
<path d="M2215 281 c-3 -6 3 -9 14 -8 11 0 17 5 15 9 -7 11 -22 10 -29 -1z"/>
<path d="M915 249 c-4 -6 -5 -12 -2 -15 2 -3 7 2 10 11 7 17 1 20 -8 4z"/>
<path d="M2635 250 c-3 -5 -1 -10 4 -10 6 0 11 5 11 10 0 6 -2 10 -4 10 -3 0
-8 -4 -11 -10z"/>
<path d="M2817 252 c-4 -6 -14 -9 -22 -5 -10 3 -15 -1 -15 -12 0 -9 5 -13 11
-10 5 4 19 -3 30 -16 10 -12 19 -18 19 -13 0 5 3 20 7 33 4 16 3 22 -5 18 -5
-4 -12 -2 -14 5 -3 9 -6 9 -11 0z"/>
<path d="M2930 235 c0 -8 5 -15 10 -15 6 0 10 7 10 15 0 8 -4 15 -10 15 -5 0
-10 -7 -10 -15z"/>
<path d="M865 230 c-3 -5 -1 -10 4 -10 6 0 11 5 11 10 0 6 -2 10 -4 10 -3 0
-8 -4 -11 -10z"/>
<path d="M2890 226 c0 -8 5 -18 10 -21 6 -3 10 3 10 14 0 12 -4 21 -10 21 -5
0 -10 -6 -10 -14z"/>
<path d="M2970 229 c0 -5 5 -7 10 -4 6 3 10 8 10 11 0 2 -4 4 -10 4 -5 0 -10
-5 -10 -11z"/>
<path d="M1577 223 c-4 -3 -7 -11 -7 -17 0 -6 5 -5 12 2 6 6 9 14 7 17 -3 3
-9 2 -12 -2z"/>
<path d="M2840 540 c-13 -8 -12 -10 3 -10 9 0 17 5 17 10 0 12 -1 12 -20 0z"/>
<path d="M2830 490 c0 -5 9 -10 20 -10 11 0 20 5 20 10 0 6 -9 10 -20 10 -11
0 -20 -4 -20 -10z"/>
<path d="M2780 398 c0 -4 7 -8 15 -9 55 -3 75 -1 75 7 0 5 -20 9 -45 10 -25 0
-45 -3 -45 -8z"/>
<path d="M2825 350 c8 -13 35 -13 55 0 11 7 5 10 -23 10 -23 0 -36 -4 -32 -10z"/>
<path d="M400 5088 c1 -22 1 -22 15 -4 13 17 14 15 10 -20 -2 -22 -2 -30 1
-19 3 11 11 25 16 30 8 7 9 6 4 -2 -8 -14 6 -18 18 -5 7 7 11 8 37 11 5 0 7 6
3 13 -5 8 -2 9 9 5 10 -3 17 -2 17 3 0 15 -67 12 -73 -2 -4 -10 -6 -10 -6 0
-1 6 -12 12 -26 12 -19 0 -25 -5 -25 -22z"/>
<path d="M540 5101 c0 -5 -3 -16 -6 -25 -3 -9 -1 -16 4 -16 6 0 13 8 16 18 6
18 56 29 56 12 0 -6 8 -10 18 -10 14 0 15 2 2 10 -13 8 -12 10 3 10 9 0 17 -7
17 -15 0 -11 7 -14 25 -9 16 4 25 2 25 -6 0 -7 6 -5 16 5 9 9 22 14 29 11 8
-3 16 2 19 10 4 12 -14 14 -109 14 -63 0 -115 -4 -115 -9z"/>
<path d="M787 5090 c6 -22 23 -26 41 -8 9 9 13 7 18 -5 8 -21 20 -22 28 -1 4
12 2 15 -9 10 -8 -3 -15 -1 -15 4 0 6 15 10 34 10 26 0 36 -5 41 -20 3 -11 11
-20 17 -20 5 0 12 9 15 20 3 11 11 20 19 20 9 0 11 -6 7 -17 -6 -16 -5 -16 10
-4 15 12 17 11 17 -3 0 -10 4 -15 9 -11 6 3 9 14 8 25 -1 19 -9 20 -123 20
-117 0 -122 -1 -117 -20z m163 0 c0 -5 -2 -10 -4 -10 -3 0 -8 5 -11 10 -3 6
-1 10 4 10 6 0 11 -4 11 -10z"/>
<path d="M1040 5095 c0 -9 6 -12 15 -9 8 4 17 -1 21 -10 6 -14 9 -14 25 5 21
24 48 17 27 -8 -11 -14 -9 -14 19 0 40 21 44 21 36 0 -5 -13 -2 -15 11 -10 10
4 20 7 22 7 2 0 4 5 4 11 0 5 -4 7 -10 4 -5 -3 -10 -1 -10 4 0 14 17 14 25 1
5 -8 11 -7 21 1 17 14 19 -2 2 -19 -7 -7 -8 -12 -4 -12 5 0 17 10 27 22 11 11
19 16 19 9 0 -7 9 -9 28 -5 25 7 26 6 12 -11 -14 -17 -14 -17 7 -5 11 8 19 20
16 27 -7 18 -189 19 -196 1 -4 -10 -6 -10 -6 0 -1 7 -14 12 -32 12 -16 0 -28
-4 -24 -9 3 -5 1 -12 -5 -16 -5 -3 -10 1 -10 9 0 9 -9 16 -20 16 -11 0 -20 -7
-20 -15z"/>
<path d="M1367 5098 c4 -7 8 -16 9 -20 1 -5 2 -11 3 -15 1 -5 5 -2 10 6 12 18
3 41 -16 41 -9 0 -11 -5 -6 -12z"/>
<path d="M1415 5103 c11 -3 26 -10 33 -16 10 -8 16 -7 23 4 7 12 9 12 9 0 0
-12 3 -12 12 -3 15 15 48 16 48 2 0 -5 9 -10 21 -10 11 0 17 -4 14 -10 -12
-19 11 -10 25 10 19 26 34 26 20 0 -9 -16 -8 -18 5 -14 8 4 15 10 15 15 0 5 5
9 11 9 6 0 9 -7 6 -14 -4 -10 -1 -13 8 -10 8 3 13 11 12 16 -1 6 4 13 11 15 8
3 10 -1 6 -11 -3 -9 -1 -16 5 -16 7 0 14 7 17 15 9 23 23 18 18 -7 l-5 -23 12
23 c14 26 34 30 25 5 -6 -17 -5 -17 8 0 13 17 32 25 22 9 -2 -4 4 -13 15 -20
16 -10 21 -10 25 3 4 8 10 15 16 15 5 0 6 -5 2 -11 -4 -8 0 -9 15 -4 14 4 21
2 21 -7 1 -8 8 -4 19 10 11 12 27 22 37 22 16 0 16 -2 -4 -16 -12 -8 -22 -21
-22 -27 0 -8 3 -8 8 -2 13 18 61 45 79 44 16 0 16 -1 -2 -9 -21 -9 -17 -11 30
-15 17 -1 36 2 43 8 21 17 14 -15 -10 -42 l-23 -26 30 25 c16 14 32 28 35 31
20 22 93 32 85 11 -2 -7 0 -10 5 -7 6 3 10 2 10 -3 0 -12 38 -4 46 10 3 5 -5
6 -20 2 -15 -3 -26 -2 -26 4 0 5 15 9 34 9 19 -1 32 -5 30 -9 -8 -13 11 -9 25
5 11 10 11 8 2 -10 -6 -13 -8 -23 -4 -23 11 1 43 26 39 31 -2 2 10 5 27 6 26
2 29 0 15 -8 -10 -5 -18 -15 -18 -21 0 -7 4 -7 13 1 8 6 16 9 19 6 3 -3 21 2
41 10 47 19 68 19 61 0 -5 -11 -2 -13 10 -9 9 3 16 12 16 20 0 19 -386 21
-393 2 -4 -10 -6 -10 -6 0 -1 7 -14 12 -31 12 -22 0 -28 -4 -24 -15 4 -8 1
-15 -5 -15 -6 0 -11 7 -11 15 0 13 -43 15 -327 14 -181 -1 -319 -4 -308 -6z"/>
<path d="M2530 5096 c0 -21 29 -27 80 -17 3 1 -2 6 -10 11 -26 17 33 12 69 -6
33 -16 58 -11 31 6 -20 13 -3 12 21 0 13 -7 19 -7 19 0 0 5 5 10 11 10 5 0 7
-4 4 -10 -8 -14 8 -13 22 1 17 17 44 3 36 -18 -5 -15 -2 -14 19 5 25 22 52 32
30 10 -17 -17 -15 -33 3 -18 8 6 18 9 24 6 5 -4 17 1 25 10 9 8 16 11 16 5 0
-6 7 -11 16 -11 8 0 12 5 9 10 -3 6 4 10 17 10 18 0 20 -2 8 -10 -13 -9 -13
-10 1 -10 8 0 20 5 27 12 9 9 15 9 24 0 16 -16 25 -15 25 3 0 13 -34 15 -244
15 -209 0 -243 -2 -243 -15 0 -8 -4 -15 -10 -15 -5 0 -10 7 -10 15 0 8 -4 15
-10 15 -5 0 -10 -6 -10 -14z m380 0 c0 -11 -19 -15 -25 -6 -3 5 1 10 9 10 9 0
16 -2 16 -4z"/>
<path d="M3070 5099 c0 -8 14 -10 43 -6 23 3 36 4 30 1 -7 -3 -13 -10 -13 -15
0 -13 28 0 34 17 4 11 -5 14 -44 14 -31 0 -50 -4 -50 -11z"/>
<path d="M3188 5103 c6 -2 10 -9 7 -13 -3 -5 0 -12 6 -16 7 -4 9 -3 6 3 -4 6
0 13 8 17 8 3 15 1 15 -4 0 -6 5 -10 10 -10 6 0 10 7 10 15 0 11 -10 15 -37
14 -21 0 -32 -3 -25 -6z"/>
<path d="M3261 5105 c0 -5 3 -16 8 -23 6 -10 10 -10 21 2 7 9 16 14 20 11 5
-3 11 -1 15 5 4 6 -5 10 -20 10 -15 0 -24 -4 -20 -10 3 -5 2 -10 -4 -10 -5 0
-12 6 -14 13 -3 6 -6 8 -6 2z"/>
<path d="M3352 5096 c10 -7 15 -16 11 -20 -9 -8 22 1 55 17 17 8 28 8 42 -1
14 -9 19 -8 24 3 4 12 -8 15 -72 15 -66 -1 -74 -3 -60 -14z"/>
<path d="M3496 5094 c-10 -25 2 -30 20 -8 8 10 13 13 9 7 -8 -16 -10 -16 45 1
l45 15 -56 0 c-44 1 -58 -3 -63 -15z"/>
<path d="M3623 5095 c0 -8 4 -15 9 -15 4 0 8 7 8 15 0 8 -4 15 -8 15 -5 0 -9
-7 -9 -15z"/>
<path d="M3690 5095 c0 -8 5 -15 10 -15 6 0 10 5 10 11 0 5 4 8 9 4 5 -3 12
-1 16 5 4 6 -5 10 -19 10 -16 0 -26 -6 -26 -15z"/>
<path d="M3765 5103 c11 -3 23 -10 27 -17 6 -8 8 -8 8 1 0 9 23 12 75 11 43 0
75 -5 75 -10 0 -7 5 -6 13 0 8 7 46 10 90 9 42 -1 77 1 77 5 0 5 -87 7 -192 7
-106 -1 -184 -4 -173 -6z"/>
<path d="M4143 5097 c0 -8 6 -14 14 -14 7 0 13 5 13 10 0 5 6 4 13 -2 8 -6 17
-8 20 -4 15 14 5 23 -26 23 -21 0 -34 -5 -34 -13z"/>
<path d="M4226 5094 c-5 -14 -4 -15 9 -4 17 14 19 20 6 20 -5 0 -12 -7 -15
-16z"/>
<path d="M4264 5101 c4 -5 0 -12 -6 -14 -8 -3 -6 -6 5 -6 9 -1 17 6 17 14 0 8
-5 15 -11 15 -5 0 -8 -4 -5 -9z"/>
<path d="M4296 5095 c4 -8 10 -12 15 -9 14 8 10 24 -6 24 -9 0 -12 -6 -9 -15z"/>
<path d="M4330 5100 c0 -5 5 -10 10 -10 6 0 10 5 10 10 0 6 -4 10 -10 10 -5 0
-10 -4 -10 -10z"/>
<path d="M4365 5101 c3 -5 22 -7 43 -4 35 6 36 5 22 -13 -14 -18 -14 -18 3 -5
28 22 20 31 -29 31 -25 0 -43 -4 -39 -9z"/>
<path d="M4470 5099 c0 -5 5 -7 11 -3 6 3 15 0 20 -7 6 -10 9 -11 9 -1 0 7 15
12 39 12 22 0 42 -5 44 -12 4 -10 6 -10 6 0 1 6 12 12 26 12 14 0 25 -6 25
-12 0 -9 4 -8 10 2 9 13 11 13 20 0 8 -13 10 -12 10 3 0 15 -12 17 -110 17
-71 0 -110 -4 -110 -11z"/>
<path d="M4710 5090 c0 -5 5 -10 10 -10 6 0 10 5 10 10 0 6 -4 10 -10 10 -5 0
-10 -4 -10 -10z"/>
<path d="M577 5083 c-12 -11 -7 -19 12 -19 11 0 17 5 14 13 -6 14 -16 17 -26
6z"/>
<path d="M897 5083 c-4 -3 -7 -11 -7 -17 0 -6 5 -5 12 2 6 6 9 14 7 17 -3 3
-9 2 -12 -2z"/>
<path d="M1412 5081 c2 -7 7 -12 11 -12 12 1 9 15 -3 20 -7 2 -11 -2 -8 -8z"/>
<path d="M1500 5074 c0 -14 3 -14 15 -4 8 7 15 14 15 16 0 2 -7 4 -15 4 -8 0
-15 -7 -15 -16z"/>
<path d="M2157 5083 c-4 -3 -7 -11 -7 -17 0 -6 5 -5 12 2 6 6 9 14 7 17 -3 3
-9 2 -12 -2z"/>
<path d="M2460 5079 c0 -5 5 -7 10 -4 6 3 10 8 10 11 0 2 -4 4 -10 4 -5 0 -10
-5 -10 -11z"/>
<path d="M2620 5075 c0 -8 2 -15 4 -15 2 0 6 7 10 15 3 8 1 15 -4 15 -6 0 -10
-7 -10 -15z"/>
<path d="M2780 5073 c0 -10 4 -14 8 -8 4 6 11 13 16 18 5 4 2 7 -7 7 -10 0
-17 -8 -17 -17z"/>
<path d="M3016 5081 c-4 -7 -5 -15 -2 -18 9 -9 19 4 14 18 -4 11 -6 11 -12 0z"/>
<path d="M3330 5079 c0 -5 5 -7 10 -4 6 3 10 8 10 11 0 2 -4 4 -10 4 -5 0 -10
-5 -10 -11z"/>
<path d="M3590 5079 c0 -5 5 -7 10 -4 6 3 10 8 10 11 0 2 -4 4 -10 4 -5 0 -10
-5 -10 -11z"/>
<path d="M3906 5074 c-5 -14 -4 -15 9 -4 17 14 19 20 6 20 -5 0 -12 -7 -15
-16z"/>
<path d="M4750 5080 c0 -5 5 -10 10 -10 6 0 10 5 10 10 0 6 -4 10 -10 10 -5 0
-10 -4 -10 -10z"/>
<path d="M2266 5053 c-6 -14 -5 -15 5 -6 7 7 10 15 7 18 -3 3 -9 -2 -12 -12z"/>
<path d="M546 5041 c-4 -7 -5 -15 -2 -18 9 -9 19 4 14 18 -4 11 -6 11 -12 0z"/>
<path d="M4820 5035 c0 -17 9 -19 28 -6 11 7 10 10 -3 15 -23 9 -25 8 -25 -9z"/>
<path d="M581 5024 c0 -11 3 -14 6 -6 3 7 2 16 -1 19 -3 4 -6 -2 -5 -13z"/>
<path d="M610 5029 c0 -5 5 -7 10 -4 6 3 10 8 10 11 0 2 -4 4 -10 4 -5 0 -10
-5 -10 -11z"/>
<path d="M1257 5033 c-4 -3 -7 -11 -7 -17 0 -6 5 -5 12 2 6 6 9 14 7 17 -3 3
-9 2 -12 -2z"/>
<path d="M4850 5000 l-25 -21 28 12 c15 7 27 16 27 21 0 11 -1 10 -30 -12z"/>
<path d="M4865 4960 c-3 -6 1 -7 9 -4 18 7 21 14 7 14 -6 0 -13 -4 -16 -10z"/>
<path d="M4913 4964 c3 -4 -4 -15 -16 -25 -12 -10 -19 -18 -15 -19 11 0 48 33
48 42 0 5 -5 8 -12 8 -6 0 -9 -3 -5 -6z"/>
<path d="M4940 4884 c13 -33 13 -34 -7 -35 -11 0 -7 -5 10 -11 38 -14 42 -6
22 36 -20 41 -40 49 -25 10z"/>
<path d="M4930 4810 c-13 -8 -13 -10 1 -10 9 0 22 -7 29 -15 11 -13 8 -15 -16
-16 -21 -1 -24 -3 -9 -6 34 -8 38 -20 8 -28 l-28 -7 25 -10 c20 -7 22 -11 10
-19 -11 -8 -12 -12 -2 -16 20 -8 14 -23 -9 -23 -21 0 -21 0 2 -20 l24 -19 -25
-1 -25 -1 23 -11 c12 -6 22 -15 22 -20 0 -4 -10 -8 -22 -9 l-23 0 23 -16 c12
-8 22 -19 22 -23 0 -5 -10 -6 -22 -3 -20 4 -19 2 7 -16 l30 -22 -30 6 -30 6
30 -25 30 -26 -30 0 -30 -1 30 -17 30 -17 -28 -3 -28 -3 23 -19 c22 -18 22
-19 3 -20 -19 -1 -19 -1 -2 -14 23 -18 22 -26 -5 -27 l-23 0 23 -11 c24 -12
31 -31 7 -22 -8 4 -15 1 -15 -4 0 -6 9 -14 20 -17 20 -6 20 -7 -2 -26 -20 -16
-21 -20 -8 -28 11 -8 17 -6 22 7 5 14 7 13 7 -5 1 -13 -3 -23 -9 -23 -5 0 -10
-5 -10 -12 0 -7 6 -6 18 4 9 9 22 14 28 11 6 -2 14 3 17 12 5 10 0 15 -13 15
-19 0 -20 8 -20 290 0 270 -1 290 -17 290 -10 0 -25 -5 -33 -10z"/>
<path d="M2218 4345 c-4 -4 -136 -14 -200 -15 -16 0 -28 -4 -28 -10 0 -5 9
-10 20 -10 11 0 20 -6 20 -12 1 -8 6 -6 14 5 16 21 30 22 22 2 -7 -19 -1 -19
31 2 19 13 28 14 31 5 6 -18 22 -14 22 6 0 14 2 15 10 2 8 -12 11 -13 19 -1 7
11 9 11 14 0 4 -10 8 -11 14 -3 4 6 15 13 23 16 9 3 10 7 3 11 -5 4 -12 4 -15
2z"/>
<path d="M2268 4343 c-20 -5 -24 -28 -6 -39 8 -5 9 -2 5 9 -5 12 -1 17 13 17
10 0 22 5 25 10 6 10 -6 11 -37 3z"/>
<path d="M2330 4346 c0 -2 7 -17 15 -32 l15 -29 0 28 c0 15 5 27 10 27 6 0 10
-6 8 -13 -2 -7 0 -14 5 -15 4 -1 7 1 8 6 0 4 5 13 11 20 8 9 1 12 -31 12 -22
0 -41 -2 -41 -4z"/>
<path d="M2435 4340 c-3 -5 -1 -10 4 -10 6 0 11 5 11 10 0 6 -2 10 -4 10 -3 0
-8 -4 -11 -10z"/>
<path d="M2460 4340 c0 -5 6 -10 14 -10 8 0 18 5 21 10 3 6 -3 10 -14 10 -12
0 -21 -4 -21 -10z"/>
<path d="M2589 4342 c-31 -3 -36 -6 -32 -23 6 -20 23 -27 23 -8 0 7 12 8 33 4
24 -5 28 -4 17 4 -12 9 -10 11 13 11 19 0 27 -5 27 -17 1 -17 1 -17 14 0 13
17 32 25 22 9 -2 -4 -1 -14 5 -22 7 -12 9 -12 9 -1 0 8 7 11 20 8 14 -4 20 0
21 11 0 11 4 8 11 -8 9 -21 12 -22 15 -7 5 18 23 24 23 7 0 -19 16 -10 17 9 1
17 -6 19 -60 20 -34 0 -80 2 -102 3 -22 2 -56 2 -76 0z"/>
<path d="M2510 4325 c0 -8 4 -15 8 -15 5 0 9 7 9 15 0 8 -4 15 -9 15 -4 0 -8
-7 -8 -15z"/>
<path d="M2840 4329 c0 -7 11 -9 25 -7 20 4 25 1 25 -16 1 -20 2 -20 14 -3 18
23 26 22 26 -4 0 -20 2 -19 33 7 l32 27 3 -22 c3 -21 5 -22 22 -6 12 11 20 13
25 6 3 -6 13 -11 21 -11 8 0 12 5 9 10 -3 6 3 10 14 10 14 0 19 -5 15 -15 -4
-9 0 -15 9 -15 9 0 22 7 31 15 20 20 30 19 21 -2 -5 -15 -4 -16 6 -5 18 17 32
15 25 -4 -3 -8 -2 -12 4 -9 6 3 10 13 10 21 0 8 5 14 10 14 6 0 10 -7 8 -16
-2 -10 3 -19 11 -22 10 -3 12 0 8 12 -4 10 -1 16 7 16 8 0 17 -6 19 -12 4 -10
6 -10 6 0 1 6 8 12 16 12 8 0 15 -6 16 -12 0 -7 4 -4 9 7 8 19 8 19 18 -5 9
-22 11 -23 17 -7 9 21 45 23 45 2 0 -9 6 -12 17 -8 11 4 12 8 5 11 -7 2 -12
10 -12 18 0 11 -26 14 -132 14 -73 0 -202 2 -285 5 -107 3 -153 1 -153 -6z"/>
<path d="M2310 4314 c0 -8 5 -12 10 -9 6 4 8 11 5 16 -9 14 -15 11 -15 -7z"/>
<path d="M3426 4321 c-3 -5 4 -11 16 -15 22 -5 22 -6 3 -20 -11 -8 -17 -17
-14 -20 4 -4 17 5 30 19 31 32 41 32 34 -2 l-6 -28 14 24 c8 13 17 19 20 14
10 -16 54 -22 66 -10 23 23 9 32 -52 34 -34 2 -72 5 -84 8 -12 3 -24 1 -27 -4z"/>
<path d="M2225 4310 c-3 -5 -1 -10 4 -10 6 0 11 5 11 10 0 6 -2 10 -4 10 -3 0
-8 -4 -11 -10z"/>
<path d="M2446 4305 c4 -8 10 -12 15 -9 14 8 10 24 -6 24 -9 0 -12 -6 -9 -15z"/>
<path d="M2484 4305 c4 -24 16 -30 16 -7 0 12 -4 22 -9 22 -5 0 -8 -7 -7 -15z"/>
<path d="M3621 4313 c0 -6 -4 -20 -7 -30 -5 -14 -4 -15 5 -7 7 7 11 20 8 30
-3 11 -5 14 -6 7z"/>
<path d="M2291 4294 c0 -11 3 -14 6 -6 3 7 2 16 -1 19 -3 4 -6 -2 -5 -13z"/>
<path d="M3640 4295 c0 -8 5 -15 10 -15 6 0 10 5 10 10 0 6 7 10 15 10 8 0 15
-5 15 -11 0 -5 5 -7 10 -4 6 3 10 1 10 -5 0 -8 6 -8 20 0 11 6 31 8 45 6 14
-3 25 0 25 5 0 6 5 7 10 4 6 -4 8 -10 5 -15 -3 -5 -1 -11 5 -15 5 -3 10 -2 10
3 0 5 9 12 20 15 11 3 20 0 20 -5 0 -7 4 -7 13 0 16 14 46 10 57 -7 4 -8 10
-9 14 -3 3 5 17 8 31 7 14 -2 27 0 30 4 5 9 -219 31 -312 31 -49 0 -63 -3 -63
-15z"/>
<path d="M4036 4293 c-3 -3 -6 -11 -6 -16 0 -6 3 -7 7 -4 3 4 12 2 19 -4 8 -6
21 -8 31 -4 10 5 21 7 26 7 4 -1 7 3 7 8 0 6 -13 9 -28 8 -15 -1 -32 1 -38 5
-6 3 -14 4 -18 0z"/>
<path d="M2580 4280 c0 -5 -25 -37 -55 -71 -30 -34 -55 -65 -55 -69 0 -4 -9
-17 -20 -30 -11 -13 -20 -32 -20 -43 0 -21 0 -21 18 -1 24 26 143 194 149 210
3 8 0 14 -6 14 -6 0 -11 -4 -11 -10z"/>
<path d="M4130 4274 c0 -11 9 -13 35 -11 19 2 37 2 40 -1 3 -4 33 -5 67 -4 37
1 67 -3 76 -11 13 -10 14 -9 5 7 -9 16 -23 20 -68 21 -31 0 -59 -3 -62 -8 -3
-5 -8 -5 -12 0 -3 6 -23 13 -43 16 -29 4 -38 2 -38 -9z"/>
<path d="M2259 4275 c-4 -5 -10 -26 -14 -45 -7 -33 -6 -34 10 -19 10 10 15 28
13 45 -2 16 -6 25 -9 19z"/>
<path d="M2680 4269 c0 -5 5 -7 10 -4 6 3 10 8 10 11 0 2 -4 4 -10 4 -5 0 -10
-5 -10 -11z"/>
<path d="M2847 4274 c-4 -4 -7 -17 -7 -28 1 -19 1 -20 11 -3 11 19 8 43 -4 31z"/>
<path d="M1470 4260 c0 -5 5 -10 10 -10 6 0 10 5 10 10 0 6 -4 10 -10 10 -5 0
-10 -4 -10 -10z"/>
<path d="M2171 4242 c-22 -31 -28 -58 -12 -47 12 7 42 67 37 72 -2 2 -13 -9
-25 -25z"/>
<path d="M2447 4240 c-22 -36 -22 -63 -1 -35 26 33 35 54 26 59 -5 3 -16 -8
-25 -24z"/>
<path d="M2508 4256 c-10 -7 -18 -16 -18 -20 0 -4 -12 -19 -27 -34 -31 -30
-53 -74 -52 -100 0 -11 2 -13 6 -4 3 7 18 27 34 45 16 17 29 37 29 45 0 7 7
15 15 18 8 4 15 12 15 19 0 7 5 15 12 17 6 2 9 9 7 15 -3 8 -9 8 -21 -1z"/>
<path d="M4367 4253 c3 -8 12 -12 20 -9 8 3 30 6 49 6 19 0 34 4 34 8 0 5 -24
8 -54 8 -42 0 -53 -3 -49 -13z"/>
<path d="M4486 4263 c-17 -17 -3 -22 72 -23 17 0 32 -5 32 -10 0 -6 5 -10 11
-10 5 0 7 5 4 10 -3 6 -1 10 4 10 6 0 11 4 11 8 0 5 -26 10 -57 11 -31 1 -60
4 -64 6 -3 3 -9 2 -13 -2z"/>
<path d="M2370 4231 c0 -19 -7 -42 -15 -51 -14 -15 -32 -120 -20 -120 2 0 11
12 20 28 l15 27 -6 -29 c-5 -22 -4 -28 7 -24 8 3 17 23 20 47 3 23 11 47 17
53 7 7 12 18 12 25 0 17 -20 17 -20 1 -1 -13 -34 -58 -43 -58 -2 0 -2 11 1 25
2 14 8 25 12 25 4 0 12 11 18 24 8 18 7 28 -3 43 -13 17 -14 15 -15 -16z"/>
<path d="M3023 4221 c-25 -32 -47 -81 -35 -80 9 0 72 87 72 99 0 17 -14 10
-37 -19z"/>
<path d="M3501 4231 c-7 -11 -15 -20 -20 -18 -13 3 -81 -102 -81 -127 0 -20 1
-20 20 4 11 14 20 31 20 38 0 7 7 15 15 18 8 4 15 15 15 25 0 10 3 18 8 18 21
-4 30 3 36 27 9 34 1 42 -13 15z"/>
<path d="M4636 4235 c4 -8 8 -15 10 -15 2 0 4 7 4 15 0 8 -4 15 -10 15 -5 0
-7 -7 -4 -15z"/>
<path d="M4895 4240 c3 -5 10 -10 16 -10 5 0 9 5 9 10 0 6 -7 10 -16 10 -8 0
-12 -4 -9 -10z"/>
<path d="M1862 4220 c0 -14 2 -19 5 -12 2 6 2 18 0 25 -3 6 -5 1 -5 -13z"/>
<path d="M5030 4230 c0 -5 7 -10 15 -10 8 0 15 5 15 10 0 6 -7 10 -15 10 -8 0
-15 -4 -15 -10z"/>
<path d="M5090 4224 c0 -8 5 -12 10 -9 6 4 8 11 5 16 -9 14 -15 11 -15 -7z"/>
<path d="M5116 4215 c-3 -8 -1 -15 3 -15 5 0 11 7 15 15 3 8 1 15 -3 15 -5 0
-11 -7 -15 -15z"/>
<path d="M5150 4226 c0 -2 8 -10 17 -17 11 -10 14 -10 9 -1 -5 8 0 12 14 12
12 0 19 -4 16 -8 -5 -8 77 -6 101 3 6 2 13 -1 15 -7 3 -7 10 -8 17 -4 26 16
-12 26 -101 26 -49 0 -88 -2 -88 -4z"/>
<path d="M4091 4190 c0 -20 -5 -40 -11 -46 -5 -5 -6 -15 -1 -22 13 -21 28 29
20 68 l-6 35 -2 -35z"/>
<path d="M5367 4209 c7 -7 21 -7 44 -1 l34 10 -44 1 c-32 1 -42 -2 -34 -10z"/>
<path d="M5480 4211 c0 -5 9 -7 20 -4 11 3 20 7 20 9 0 2 -9 4 -20 4 -11 0
-20 -4 -20 -9z"/>
<path d="M5536 4213 c-3 -3 6 -12 20 -20 19 -9 30 -10 39 -3 9 8 14 7 18 -2 3
-10 7 -10 17 -1 7 6 18 9 25 7 7 -3 16 -1 20 5 9 15 -78 14 -93 -1 -8 -8 -12
-8 -12 -1 0 13 -25 24 -34 16z"/>
<path d="M4127 4203 c-4 -3 -7 -15 -7 -27 0 -20 0 -20 15 0 8 10 15 22 15 27
0 9 -14 9 -23 0z"/>
<path d="M4156 4175 c-18 -33 -16 -60 3 -39 9 9 26 74 19 74 -2 0 -12 -16 -22
-35z"/>
<path d="M4355 4200 c3 -5 8 -10 11 -10 2 0 4 5 4 10 0 6 -5 10 -11 10 -5 0
-7 -4 -4 -10z"/>
<path d="M1552 4180 c0 -14 2 -19 5 -12 2 6 2 18 0 25 -3 6 -5 1 -5 -13z"/>
<path d="M4450 4185 c0 -8 5 -15 10 -15 6 0 10 7 10 15 0 8 -4 15 -10 15 -5 0
-10 -7 -10 -15z"/>
<path d="M5265 4189 c-4 -6 -5 -12 -2 -15 2 -3 7 2 10 11 7 17 1 20 -8 4z"/>
<path d="M5415 4190 c-3 -5 -1 -10 4 -10 6 0 11 5 11 10 0 6 -2 10 -4 10 -3 0
-8 -4 -11 -10z"/>
<path d="M5507 4193 c-4 -3 -7 -11 -7 -17 0 -6 5 -5 12 2 6 6 9 14 7 17 -3 3
-9 2 -12 -2z"/>
<path d="M5690 4190 c0 -12 8 -12 35 0 18 8 17 9 -7 9 -16 1 -28 -3 -28 -9z"/>
<path d="M5750 4190 c0 -5 5 -10 11 -10 5 0 7 5 4 10 -3 6 -8 10 -11 10 -2 0
-4 -4 -4 -10z"/>
<path d="M5785 4190 c-4 -6 3 -10 14 -10 25 0 27 6 6 13 -8 4 -17 2 -20 -3z"/>
<path d="M5830 4190 c0 -13 18 -22 24 -11 3 5 -1 11 -9 15 -8 3 -15 1 -15 -4z"/>
<path d="M5877 4193 c-15 -14 -5 -18 48 -19 31 0 52 3 48 8 -3 6 -16 8 -29 5
-14 -2 -27 0 -30 4 -6 11 -28 12 -37 2z"/>
<path d="M4490 4175 c0 -8 5 -15 10 -15 6 0 10 7 10 15 0 8 -4 15 -10 15 -5 0
-10 -7 -10 -15z"/>
<path d="M4633 4160 c-26 -32 -32 -60 -8 -36 8 8 15 19 15 25 0 6 4 11 9 11 5
0 11 7 15 15 9 24 -7 16 -31 -15z"/>
<path d="M6000 4180 c8 -5 22 -10 30 -10 13 0 13 1 0 10 -8 5 -22 10 -30 10
-13 0 -13 -1 0 -10z"/>
<path d="M6080 4169 c0 -5 5 -7 10 -4 6 3 10 8 10 11 0 2 -4 4 -10 4 -5 0 -10
-5 -10 -11z"/>
<path d="M6125 4170 c-3 -5 1 -10 10 -10 9 0 13 5 10 10 -3 6 -8 10 -10 10 -2
0 -7 -4 -10 -10z"/>
<path d="M4560 4149 c-15 -28 -4 -38 15 -13 17 22 19 34 5 34 -5 0 -14 -9 -20
-21z"/>
<path d="M4713 4150 c-6 -14 -8 -29 -5 -34 7 -13 24 22 19 42 -3 14 -6 12 -14
-8z"/>
<path d="M5116 4154 c-20 -20 -21 -35 -1 -28 8 4 15 12 15 19 0 7 6 16 13 18
8 4 9 6 0 6 -6 1 -19 -6 -27 -15z"/>
<path d="M5167 4153 c-10 -9 -9 -23 2 -23 5 0 11 7 15 15 5 15 -5 20 -17 8z"/>
<path d="M4105 4119 c-4 -11 -4 -23 0 -27 7 -7 25 17 25 36 0 20 -18 14 -25
-9z"/>
<path d="M4938 2883 c17 -9 32 -20 32 -25 0 -4 -15 -5 -32 -2 -28 4 -30 3 -10
-5 26 -12 29 -31 5 -32 -14 0 -13 -3 5 -11 33 -16 27 -31 -10 -23 -25 5 -29 4
-18 -4 8 -6 23 -11 32 -11 9 0 20 -5 24 -11 5 -8 -3 -10 -25 -7 -40 6 -39 1 2
-17 l32 -14 -30 -1 -30 0 25 -20 25 -20 -25 0 -25 0 29 -19 29 -19 -29 -4 -29
-4 28 -12 c32 -13 36 -22 7 -15 -25 7 -26 -12 -2 -26 15 -9 15 -10 -5 -11 -13
0 -23 -4 -23 -8 0 -5 10 -14 23 -21 21 -11 21 -11 -5 -8 -16 3 -28 3 -28 2 0
-2 15 -12 33 -24 31 -20 31 -21 7 -21 -23 -1 -24 -2 -7 -14 23 -18 21 -25 -5
-19 -23 4 -23 4 1 -10 l23 -14 -23 -7 -24 -7 25 -11 c23 -10 23 -11 5 -15 -20
-5 -49 -26 -30 -23 23 5 45 -1 45 -11 0 -6 -9 -8 -22 -4 l-23 7 23 -17 c21
-15 33 -43 13 -30 -5 3 -12 1 -15 -4 -3 -5 4 -11 16 -14 37 -10 15 -16 -25 -8
-21 5 -35 5 -31 0 3 -5 13 -9 23 -9 10 0 24 -7 31 -15 10 -13 9 -15 -11 -16
l-24 0 23 -11 c12 -6 22 -15 22 -20 0 -5 -10 -7 -22 -3 l-23 6 24 -20 c23 -21
23 -21 2 -21 -27 0 -27 -17 -1 -25 11 -3 20 -10 20 -15 0 -5 -7 -7 -15 -4 -24
10 -17 -12 8 -24 21 -10 21 -11 -7 -11 -28 -1 -29 -2 -10 -16 17 -13 17 -14 2
-15 -22 0 -24 -16 -3 -24 21 -8 19 -26 -2 -26 -14 -1 -12 -4 7 -15 l25 -14
-30 -1 -30 -1 30 -14 c29 -13 30 -13 5 -15 l-25 -1 25 -14 c14 -8 28 -14 32
-15 4 0 8 215 8 479 l0 479 -23 6 c-41 11 -52 5 -19 -11z"/>
<path d="M4890 2101 c0 -6 5 -13 10 -16 6 -3 10 1 10 9 0 9 -4 16 -10 16 -5 0
-10 -4 -10 -9z"/>
<path d="M4850 2000 c0 -5 5 -10 11 -10 5 0 7 5 4 10 -3 6 -8 10 -11 10 -2 0
-4 -4 -4 -10z"/>
<path d="M4912 1925 c2 -2 17 -11 33 -19 29 -15 29 -16 6 -16 -24 0 -24 0 -6
-20 17 -18 17 -20 2 -14 -24 9 -21 -4 6 -26 l22 -19 -25 5 c-24 5 -24 5 -6
-10 19 -16 19 -16 -3 -16 -26 0 -19 -17 13 -30 19 -8 19 -9 -6 -9 -28 -1 -41
-21 -13 -21 18 0 20 -16 3 -23 -10 -4 -9 -8 2 -17 13 -10 13 -12 1 -17 -10 -4
-8 -9 10 -19 19 -10 20 -13 7 -14 -10 0 -18 -5 -18 -10 0 -6 8 -14 18 -18 13
-5 11 -8 -13 -13 l-30 -6 28 -11 c31 -13 37 -27 7 -19 -27 7 -25 -7 3 -21 l22
-11 -24 0 c-21 -1 -22 -3 -10 -18 13 -15 11 -16 -19 -10 -21 4 -31 3 -27 -3 3
-6 15 -10 26 -10 21 0 27 -20 7 -20 -7 -1 -2 -7 12 -15 25 -14 25 -14 3 -15
-13 0 -23 -4 -23 -10 0 -5 9 -10 19 -10 11 0 23 -5 27 -12 5 -8 2 -9 -9 -5
-24 9 -32 -12 -11 -29 18 -15 18 -15 -3 -11 -13 3 -23 2 -23 -2 0 -5 10 -13
23 -19 l22 -11 -22 0 c-31 -1 -29 -15 5 -28 27 -11 26 -11 -13 -12 l-40 -1 34
-17 c28 -14 31 -18 15 -23 -17 -6 -17 -7 1 -18 20 -11 20 -11 0 -13 -11 -1
-24 -1 -30 0 -5 0 -2 -5 8 -12 10 -6 26 -18 35 -25 15 -12 14 -13 -10 -9 -32
5 -38 -9 -8 -18 27 -9 25 -24 -2 -18 l-23 5 24 -21 c18 -16 20 -21 7 -21 -21
0 -20 -19 2 -27 14 -6 13 -8 -8 -13 l-25 -6 30 -17 30 -16 -27 -1 c-15 0 -30
-5 -34 -12 -4 -6 -3 -9 2 -5 5 3 20 -1 34 -9 24 -15 24 -15 -18 -11 -24 3 -40
1 -36 -4 3 -5 13 -9 23 -9 19 0 63 -29 44 -30 -6 0 -15 4 -18 10 -4 6 -13 5
-25 -2 -17 -11 -16 -14 18 -35 37 -23 37 -23 7 -17 l-30 6 25 -21 c20 -17 22
-21 8 -21 -10 0 -18 -3 -18 -6 0 -4 8 -13 18 -20 16 -12 15 -13 -8 -14 l-25 0
30 -21 30 -21 -28 5 c-26 4 -27 4 -11 -14 44 -49 44 -53 44 566 0 322 -3 586
-7 586 -35 5 -65 7 -61 4z"/>
<path d="M4890 1136 c0 -2 7 -9 15 -16 13 -11 14 -10 9 4 -5 14 -24 23 -24 12z"/>
<path d="M4943 724 c15 -8 27 -16 27 -18 0 -2 -12 -1 -27 1 l-28 5 25 -21 c25
-20 25 -21 3 -21 -21 0 -21 -2 -8 -27 11 -21 12 -29 2 -35 -8 -6 -5 -10 11
-14 32 -9 27 -26 -5 -18 l-28 6 25 -21 c20 -17 22 -21 8 -21 -10 0 -18 -3 -18
-6 0 -4 8 -13 18 -20 16 -12 15 -13 -7 -14 l-23 0 23 -21 24 -20 -24 7 c-17 4
-22 2 -19 -7 2 -7 15 -16 29 -20 l25 -6 2 153 3 154 -33 0 -33 -1 28 -15z"/>
<path d="M4893 426 c2 -6 23 -16 46 -23 38 -11 42 -10 39 5 -2 12 -17 19 -46
23 -27 3 -41 2 -39 -5z"/>
<path d="M4886 387 c5 -14 53 -37 75 -37 22 0 6 28 -18 33 -16 3 -36 9 -46 12
-13 6 -16 3 -11 -8z"/>
<path d="M4850 376 c0 -2 11 -15 25 -30 14 -15 25 -24 25 -20 0 3 6 2 13 -3
15 -11 36 -11 40 1 1 5 -22 19 -50 32 -29 12 -53 22 -53 20z"/>
</g>
</svg>
